<svg width="202" height="158" viewBox="0 0 202 158" fill="none" xmlns="http://www.w3.org/2000/svg">
<g clip-path="url(#clip0_23_629)">
<path d="M47.2104 127.452C47.2104 127.452 51.3209 131.565 49.0007 137.667C46.6805 143.77 52.9787 153.921 52.9787 153.921L52.778 153.889C44.3342 152.399 40.1334 142.736 44.834 135.559C46.5962 132.892 48.0273 129.761 47.2104 127.452Z" fill="#6C63FF"/>
<path d="M47.2104 127.452C47.2104 127.452 49.5306 132.494 47.2104 136.607C44.8902 140.72 46.809 152.271 52.9787 153.921" stroke="#535461" stroke-miterlimit="10"/>
<path d="M39.8966 144.089C39.8966 144.089 44.5871 143.342 45.0146 147.548C45.4422 151.753 54.0344 152.337 54.0344 152.337L53.8739 152.443C46.7789 157.104 39.997 155.411 41.0286 149.23C41.3899 146.925 41.3678 144.614 39.8966 144.089Z" fill="#6C63FF"/>
<path opacity="0.2" d="M39.8966 144.089C39.8966 144.089 44.5871 143.342 45.0146 147.548C45.4422 151.753 54.0344 152.337 54.0344 152.337L53.8739 152.443C46.7789 157.104 39.997 155.411 41.0286 149.23C41.3899 146.925 41.3678 144.614 39.8966 144.089Z" fill="#F5F5F5"/>
<path d="M39.8966 144.089C39.8966 144.089 43.5374 144.893 43.2384 148.202C42.9393 151.512 48.6454 155.486 54.0344 152.339" stroke="#535461" stroke-miterlimit="10"/>
<path opacity="0.1" d="M177.885 73.1123C180.181 77.8295 178.72 84.597 181.971 88.4527C184.356 91.2801 188.314 91.2641 191.017 93.6498C193.121 95.5113 194.168 98.5577 195.122 101.449L199.754 115.507C201.864 121.909 203.666 130.15 199.417 134.843C196.87 137.655 193.022 137.974 189.544 137.675C164.369 135.508 144.12 110.105 119.032 106.825C101.299 104.506 83.7793 113.631 65.9444 113.127C56.5112 112.86 47.3007 109.914 38.1986 106.974C31.198 104.719 23.4286 101.753 20.0908 94.1498C18.5995 90.752 18.1359 86.6473 15.9201 83.854C14.2221 81.7113 11.7675 80.6971 9.65803 79.1448C0.469639 72.3753 -0.584074 57.2338 0.216748 44.484C0.660312 37.4112 1.41096 30.1698 4.20681 23.8923C7.00267 17.6148 12.2632 12.4237 18.2684 12.2189C22.0658 12.0884 25.6946 13.8997 29.3896 14.9118C33.0846 15.9239 37.4179 15.9541 40.1917 12.9037C42.4677 10.3995 43.1822 6.37714 45.4582 3.86694C47.2305 1.91702 49.7032 1.15994 52.0936 0.696059C64.9489 -1.79808 78.6432 2.53152 88.7247 12.2751C91.1754 14.6427 93.5096 17.3738 96.5042 18.5888C100.492 20.2053 104.852 18.8358 109.068 18.8699C123.945 18.9904 134.034 35.0999 144.519 45.2551C150.649 51.1933 156.578 52.4724 163.229 56.4285C167.346 58.8785 175.402 68.0136 177.885 73.1123Z" fill="#6C63FF"/>
<path d="M61.0532 71.6471H52.0535V153.909H61.0532V71.6471Z" fill="url(#paint0_linear_23_629)"/>
<path d="M70.8698 157.592H42.6443L52.6676 151.249H60.2343L70.8698 157.592Z" fill="url(#paint1_linear_23_629)"/>
<path d="M12.3756 29.4938C12.3756 29.4938 50.4217 -8.15314 99.7074 29.4938V62.026C99.7074 62.026 61.0532 85.3548 12.3776 62.026L12.3756 29.4938Z" fill="url(#paint2_linear_23_629)"/>
<path d="M15.1373 30.3212C15.1373 30.3212 50.7729 -4.9501 96.9457 30.3212V60.8011C96.9457 60.8011 60.7361 82.6539 15.1373 60.8011V30.3212Z" fill="url(#paint3_linear_23_629)"/>
<path d="M66.7773 48.3203H45.0989V66.7372H66.7773V48.3203Z" fill="url(#paint4_linear_23_629)"/>
<path d="M64.9369 49.8827H46.9395V65.1728H64.9369V49.8827Z" fill="url(#paint5_linear_23_629)"/>
<g opacity="0.1">
<path opacity="0.1" d="M63.5259 94.8052L56.6878 83.0173L50.6224 94.3915L45.3599 82.4711L39.8846 94.6084L39.6939 94.5321C41.9017 88.0819 39.712 69.7976 39.6939 69.6129L39.6096 68.9281L45.3659 81.967L50.1648 71.3238L56.6938 82.5836L62.6649 71.37L67.7227 82.9189L72.632 69.7113L73.8603 69.4663L73.8322 69.6149C73.7961 69.8036 70.4423 87.4875 72.349 93.4838L72.8026 94.5201L72.622 94.6144C72.4258 94.2797 72.2695 93.9232 72.1563 93.5521L67.7408 83.4651L63.5259 94.8052ZM56.8002 82.7984L63.4838 94.3273L67.6203 83.2001L62.6468 71.8439L56.8002 82.7984ZM45.4643 82.2141L50.6224 93.9236L56.5594 82.8024L50.1749 71.7716L45.4643 82.2141ZM39.9609 70.2535C40.3101 73.4023 41.6689 86.8348 40.2318 93.3172L45.2495 82.2141L39.9609 70.2535ZM67.8431 83.196L71.8713 92.3934C70.647 85.8468 73.2763 71.4865 73.6054 69.7313L72.7886 69.894L67.8431 83.196Z" fill="url(#paint6_linear_23_629)"/>
</g>
<g opacity="0.1">
<path opacity="0.1" d="M45.7091 94.8313L40.6353 82.1217L40.8259 82.0454L45.7192 94.2951L50.6225 83.0996L44.0854 71.0828L44.264 70.9844L50.7248 82.8627L55.6241 71.6812H55.6843L70.2316 70.3057L56.7561 94.3694L50.7489 83.3246L45.7091 94.8313ZM50.8533 83.0896L56.7581 93.9457L69.8663 70.5406L55.7686 71.874L50.8533 83.0896Z" fill="url(#paint7_linear_23_629)"/>
</g>
<g opacity="0.1">
<path opacity="0.1" d="M67.4056 94.2008L67.3012 94L55.2347 70.6712L55.4173 70.5768L67.3795 93.7027L71.8753 82.0474L72.066 82.1217L67.4056 94.2008Z" fill="url(#paint8_linear_23_629)"/>
</g>
<path d="M56.3486 66.5323C46.7468 66.5323 38.9653 67.8156 38.9653 69.398C38.9653 70.9804 46.7488 72.2636 56.3486 72.2636C65.9484 72.2636 73.7319 70.9804 73.7319 69.398C73.7319 67.8156 65.9484 66.5323 56.3486 66.5323ZM56.3486 71.0346C47.5375 71.0346 40.3964 70.2093 40.3964 69.1932C40.3964 68.177 47.5375 67.3537 56.3486 67.3537C65.1597 67.3537 72.2988 68.175 72.2988 69.1932C72.2988 70.2113 65.1577 71.0346 56.3486 71.0346Z" fill="url(#paint9_linear_23_629)"/>
<g opacity="0.2">
<path opacity="0.2" d="M56.3486 66.5323C46.7468 66.5323 38.9653 67.8156 38.9653 69.398C38.9653 70.9804 46.7488 72.2636 56.3486 72.2636C65.9484 72.2636 73.7319 70.9804 73.7319 69.398C73.7319 67.8156 65.9484 66.5323 56.3486 66.5323ZM56.3486 71.0346C47.5375 71.0346 40.3964 70.2093 40.3964 69.1932C40.3964 68.177 47.5375 67.3537 56.3486 67.3537C65.1597 67.3537 72.2988 68.175 72.2988 69.1932C72.2988 70.2113 65.1577 71.0346 56.3486 71.0346Z" fill="url(#paint10_linear_23_629)"/>
</g>
<path d="M56.3486 65.9198C46.7468 65.9198 38.9653 67.203 38.9653 68.7855C38.9653 70.3679 46.7488 71.6511 56.3486 71.6511C65.9484 71.6511 73.7319 70.3679 73.7319 68.7855C73.7319 67.203 65.9484 65.9198 56.3486 65.9198ZM56.3486 70.4221C47.5375 70.4221 40.3964 69.5968 40.3964 68.5806C40.3964 67.5645 47.5396 66.7392 56.3486 66.7392C65.1577 66.7392 72.2988 67.5545 72.2988 68.5786C72.2988 69.6028 65.1577 70.4201 56.3486 70.4201V70.4221Z" fill="url(#paint11_linear_23_629)"/>
<path d="M60.9589 71.9001H52.1277V152.628H60.9589V71.9001Z" fill="#E8EAF1"/>
<path d="M70.5928 156.243H42.8952L52.7299 150.018H60.156L70.5928 156.243Z" fill="#E8EAF1"/>
<path d="M13.1905 30.5321C13.1905 30.5321 50.5221 -6.41805 98.8926 30.5321V62.4618C98.8926 62.4618 60.9589 85.3548 13.1905 62.4618V30.5321Z" fill="#E8EAF1"/>
<path d="M15.9 31.3454C15.9 31.3454 50.8713 -3.2693 96.183 31.3454V61.2549C96.183 61.2549 60.6578 82.7 15.9 61.2549V31.3454Z" fill="#F3F5F7"/>
<path d="M66.5787 49.0071H45.3037V67.0806H66.5787V49.0071Z" fill="white"/>
<path d="M64.7723 50.5414H47.11V65.5463H64.7723V50.5414Z" fill="#F3F5F7"/>
<path opacity="0.1" d="M63.3874 94.6265L56.6758 83.0515L50.7127 94.2188L45.5485 82.5213L40.1856 94.4337L39.999 94.3594C42.1746 88.0277 40.017 70.0848 39.999 69.904L39.9167 69.2313L45.5666 82.0273L50.2772 71.5849L56.6838 82.6298L62.5585 71.625L67.522 82.9591L72.339 69.9964L73.5432 69.7554L73.5151 69.902C73.479 70.0888 70.1874 87.4413 72.06 93.3272L72.5056 94.3433L72.3269 94.4357C72.1342 94.1074 71.9806 93.7576 71.8693 93.3935L67.534 83.4933L63.3874 94.6265ZM56.7882 82.8426L63.3473 94.1566L67.4056 83.2382L62.5264 72.0929L56.7882 82.8426ZM45.6609 82.2763L50.7308 93.763L56.5513 82.8486L50.2792 72.0287L45.6609 82.2763ZM40.2599 70.5386C40.6031 73.6272 41.9358 86.8047 40.5248 93.1726L45.4402 82.2763L40.2599 70.5386ZM67.6223 83.2322L71.5743 92.2549C70.37 85.8287 72.9511 71.7375 73.2763 70.0165L72.4734 70.1771L67.6223 83.2322Z" fill="black"/>
<path opacity="0.1" d="M45.9018 94.6526L40.9222 82.1799L41.1089 82.1056L45.9118 94.1325L50.7288 83.1398L44.3062 71.3479L44.4828 71.2515L50.8231 82.8989L55.6401 71.9263H55.6983L69.9746 70.5768L56.742 94.1988L50.8472 83.3547L45.9018 94.6526ZM50.9496 83.1298L56.744 93.7831L69.6094 70.8137L55.7746 72.1211L50.9496 83.1298Z" fill="black"/>
<path opacity="0.1" d="M67.1948 94.0341L67.0905 93.8353L55.2487 70.9423L55.4274 70.8499L67.1667 93.5441L71.5803 82.1056L71.7669 82.1779L67.1948 94.0341Z" fill="black"/>
<path d="M56.3426 66.8798C46.9214 66.8798 39.2825 68.1389 39.2825 69.6912C39.2825 71.2435 46.9214 72.5026 56.3426 72.5026C65.7638 72.5026 73.4027 71.2435 73.4027 69.6912C73.4027 68.1389 65.7638 66.8798 56.3426 66.8798ZM56.3426 71.2977C47.6961 71.2977 40.6874 70.4944 40.6874 69.4904C40.6874 68.4863 47.6961 67.683 56.3426 67.683C64.9891 67.683 71.9978 68.4863 71.9978 69.4904C71.9978 70.4944 64.9891 71.2977 56.3426 71.2977Z" fill="#5F546F"/>
<path opacity="0.2" d="M56.3426 66.8798C46.9214 66.8798 39.2825 68.1389 39.2825 69.6912C39.2825 71.2435 46.9214 72.5026 56.3426 72.5026C65.7638 72.5026 73.4027 71.2435 73.4027 69.6912C73.4027 68.1389 65.7638 66.8798 56.3426 66.8798ZM56.3426 71.2977C47.6961 71.2977 40.6874 70.4944 40.6874 69.4904C40.6874 68.4863 47.6961 67.683 56.3426 67.683C64.9891 67.683 71.9978 68.4863 71.9978 69.4904C71.9978 70.4944 64.9891 71.2977 56.3426 71.2977Z" fill="black"/>
<path d="M56.3426 66.2773C46.9214 66.2773 39.2825 67.5364 39.2825 69.0887C39.2825 70.641 46.9214 71.9002 56.3426 71.9002C65.7638 71.9002 73.4027 70.641 73.4027 69.0887C73.4027 67.5364 65.7638 66.2773 56.3426 66.2773ZM56.3426 70.6953C47.6961 70.6953 40.6874 69.892 40.6874 68.8879C40.6874 67.8838 47.6961 67.0806 56.3426 67.0806C64.9891 67.0806 71.9978 67.8838 71.9978 68.8879C71.9978 69.892 64.9891 70.6953 56.3426 70.6953Z" fill="#5F546F"/>
<path opacity="0.1" d="M118.696 147.881C113.259 149.409 107.268 147.847 101.913 149.642C101.442 149.775 101.001 150.001 100.617 150.305C99.3361 151.423 99.8419 153.606 100.986 154.863C102.814 156.871 105.689 157.498 108.388 157.767C121.575 159.078 134.763 154.307 147.966 155.311C149.928 155.462 152.217 155.624 153.533 154.16C154.505 153.082 154.571 151.419 154.091 150.05C153.21 147.535 150.775 145.819 148.212 145.098C145.649 144.377 142.934 144.495 140.272 144.614C136.66 144.778 133.017 144.732 129.414 144.971C125.563 145.236 122.345 146.863 118.696 147.881Z" fill="#6C63FF"/>
<path d="M150.173 117.959C148.768 117.758 146.171 115.55 146.171 115.55C145.983 115.268 145.726 115.039 145.424 114.886C145.122 114.732 144.786 114.658 144.447 114.672L141.868 111.043C140.868 109.324 139.682 107.721 138.332 106.262C138.111 106.017 137.883 105.779 137.647 105.549C136.952 104.857 136.204 104.219 135.411 103.641C134.89 103.252 134.397 102.825 133.938 102.364C133.514 101.941 133.112 101.496 132.734 101.031L130.94 98.5163L130.819 98.3456C130.865 98.1001 130.877 97.8494 130.855 97.6006C130.855 97.5423 130.843 97.4841 130.835 97.4259L123.429 88.7145L121.221 84.2082C121.195 84.2302 121.107 84.3045 120.968 84.409L120.928 84.2945V84.2423V83.8628C120.917 80.7436 121.691 77.6717 123.178 74.9305C123.678 74.0102 123.939 72.9795 123.939 71.9323C123.939 71.8479 123.939 71.7636 123.939 71.6792L123.901 71.6371C123.83 71.5588 123.67 71.378 123.463 71.1109C123.489 71.0587 123.517 71.0045 123.543 70.9543C124.463 69.2634 125.741 68.9743 125.741 68.9743C130.044 68.3718 133.147 65.47 133.147 65.47C136.359 63.6627 135.757 62.0561 135.757 62.0561L132.854 55.0477L131.048 51.3426L130.548 49.6397C130.384 48.507 130.153 47.3851 129.856 46.28C129.428 44.6494 127.299 44.1855 126.271 45.521C126.247 45.5531 126.221 45.5872 126.197 45.6234C125.742 46.2812 125.549 47.0853 125.655 47.8782C125.761 48.6711 126.159 49.3959 126.771 49.9108C127.774 50.7663 128.647 51.6438 128.647 51.6438C130.454 52.1439 131.658 61.4557 131.658 61.4557L130.454 62.259C129.53 62.3069 128.627 62.5458 127.8 62.9605C126.973 63.3753 126.242 63.9569 125.651 64.6688H121.874C121.874 64.6527 121.884 64.6366 121.89 64.6186L121.263 64.478L119.457 64.0764L118.789 63.9257L118.779 63.9679L118.59 63.9257V63.9518C118.336 63.5497 118.108 63.1318 117.908 62.7008C117.961 62.7089 118.016 62.7089 118.07 62.7008C118.084 62.6706 118.096 62.6405 118.106 62.6104H118.171C118.45 62.0079 118.209 61.2549 118.478 60.6404C118.623 60.3812 118.784 60.131 118.959 59.8913C119.361 59.1985 119.313 58.331 119.194 57.5358C119.066 56.6803 118.869 55.8068 118.377 55.0939C117.886 54.381 117.037 53.8588 116.169 53.9713C115.487 54.0617 114.889 54.5296 114.203 54.5737C113.717 54.6019 113.251 54.4111 112.798 54.2625C112.301 54.1024 111.791 53.9862 111.274 53.9151C110.931 53.8669 110.528 53.8608 110.297 54.1159L110.277 54.142C110.248 54.1642 110.221 54.1891 110.196 54.2163C110.106 54.3295 110.038 54.459 109.996 54.5978L109.552 55.8208C109.529 55.8623 109.517 55.909 109.517 55.9564C109.517 56.0038 109.529 56.0504 109.552 56.0919C109.592 56.1421 109.663 56.1562 109.717 56.1903C110.068 56.4172 109.596 56.9775 109.887 57.2526C110.062 57.4173 110.435 57.4354 110.805 57.4334C110.469 57.9631 110.265 58.5661 110.212 59.1912C110.158 59.8163 110.256 60.4451 110.497 61.0244C110.737 61.6037 111.114 62.1163 111.595 62.519C112.076 62.9216 112.647 63.2023 113.259 63.3374C113.259 63.4036 113.259 63.4699 113.259 63.5382C113.269 64.0678 113.227 64.597 113.135 65.1186L112.842 65.1447C112.354 65.1708 111.369 65.209 110.508 65.1688C110.219 65.1573 109.932 65.1299 109.646 65.0865C109.646 65.0865 109.612 65.4519 109.546 66.0122L109.345 66.0684C107.474 66.6066 105.848 67.7812 104.749 69.3899L100.245 72.0006C100.245 72.0006 98.2383 71.5005 92.4398 76.5069L88.237 78.7158C88.237 78.7158 81.8164 80.6075 83.0166 82.5072C84.2169 84.407 90.222 80.2059 90.222 80.2059L92.6305 79.1054L99.9363 75.8924C99.9363 75.8924 102.345 74.2858 104.139 73.6834C105.933 73.0809 107.742 71.2736 107.742 71.2736L108.193 71.2495L108.394 71.2374C108.364 71.2914 108.331 71.3437 108.296 71.3941C108.278 71.4222 108.258 71.4483 108.238 71.4724V87.5919L108.205 88.0397H108.219L107.738 94.5964C107.738 94.5964 107.838 97.6086 107.437 99.3015C107.035 100.994 107.738 107.912 107.738 107.912C107.738 107.912 108.001 107.912 108.428 107.882L108.416 108.083L108.24 110.917C108.24 110.917 107.902 112.009 109.845 112.577C110.29 112.706 110.714 112.901 111.102 113.154L113.342 114.622L115.644 116.027L116.109 117.005L116.131 117.054L115.642 116.754C115.642 116.754 115.24 117.758 116.543 119.058C117.031 119.494 117.411 120.038 117.655 120.646C117.898 121.253 117.999 121.909 117.948 122.562C117.948 122.562 118.148 124.972 119.353 124.369C119.353 124.369 121.253 123.968 121.159 120.664C121.159 120.664 120.4 117.913 121.284 116.75C121.308 116.718 121.333 116.687 121.36 116.658C122.363 115.558 121.059 113.847 121.059 113.847C121.059 113.847 118.741 112.911 118.61 114.465L118.514 114.423C118.096 114.222 117.348 113.734 116.555 112.545C116.555 112.545 115.254 109.242 113.253 108.941L113.588 107.039L113.627 106.82C114.315 106.495 114.873 106.075 115.154 105.535L115.166 105.511V105.501V105.487V105.473V105.459L115.176 105.438V105.422L115.186 105.4L115.198 105.376V105.356L115.212 105.328L115.25 105.308L115.264 105.278L115.276 105.252L115.292 105.218L115.306 105.189L115.322 105.155L115.341 105.119L115.355 105.091L115.375 105.049L115.389 105.021L115.475 104.834L115.487 104.81L115.511 104.758L115.529 104.72L115.555 104.661L115.571 104.627L115.601 104.559L115.614 104.531L115.646 104.46L115.662 104.426L115.694 104.354L115.708 104.322L115.742 104.246L115.756 104.215L115.792 104.135L115.804 104.105L115.84 104.021L115.852 103.993L115.893 103.902V103.886C116.533 102.396 117.338 100.253 117.297 98.9842C117.303 98.8832 117.303 98.782 117.297 98.681H117.273V98.6609C117.273 98.6187 117.257 98.5785 117.245 98.5404L122.648 99.7453L125.86 103.25H125.874H125.886H125.9H125.916H125.932L125.952 103.239H125.97L125.996 103.227L126.016 103.217L126.044 103.203L126.068 103.191L126.102 103.173L126.125 103.161L126.163 103.141L126.187 103.127L126.227 103.107L126.255 103.091L126.299 103.067L126.327 103.053L126.373 103.027L126.406 103.009L126.456 102.98L126.49 102.898L126.546 102.866L126.576 102.85L126.634 102.818L126.668 102.798L126.729 102.764L126.761 102.743L126.825 102.705L126.859 102.685L126.925 102.645L126.958 102.625L127.028 102.583H127.04L127.152 102.713L128.557 104.344C129.962 104.946 133.161 107.949 133.161 107.949C133.531 108.834 135.094 110.099 135.893 110.706C136.121 110.875 136.364 111.024 136.618 111.152C137.055 111.379 137.671 111.919 138.235 112.465C138.971 113.193 139.761 113.864 140.598 114.473C141.371 115.063 142.06 115.758 142.643 116.538L142.711 116.626C142.233 118.232 144.967 119.865 144.967 119.865C145.971 119.664 149.069 122.476 149.069 122.476C149.069 122.476 151.972 124.779 153.172 122.275C154.372 119.771 150.173 117.959 150.173 117.959ZM144.871 115.276L144.469 114.708C144.578 114.759 144.672 114.838 144.741 114.937C144.811 115.035 144.853 115.15 144.865 115.27L144.871 115.276Z" fill="url(#paint12_linear_23_629)"/>
<path d="M119.913 66.1187C119.913 66.1187 109.787 72.0206 111.951 68.675C112.886 67.2659 113.376 65.6074 113.356 63.9157C113.355 63.3634 113.281 62.8137 113.135 62.2811L117.362 60.3131C117.288 60.8924 117.34 61.4806 117.514 62.0381C118.106 64.1306 119.913 66.1187 119.913 66.1187Z" fill="#DB8B8B"/>
<path opacity="0.1" d="M117.508 62.0401C117.107 62.7571 116.487 63.3264 115.738 63.6644C114.989 64.0024 114.152 64.0912 113.35 63.9177C113.349 63.3654 113.275 62.8157 113.129 62.2831L117.356 60.3151C117.282 60.8944 117.334 61.4827 117.508 62.0401Z" fill="black"/>
<path d="M114.162 63.8073C116.28 63.8073 117.996 62.09 117.996 59.9717C117.996 57.8533 116.28 56.1361 114.162 56.1361C112.045 56.1361 110.329 57.8533 110.329 59.9717C110.329 62.09 112.045 63.8073 114.162 63.8073Z" fill="#DB8B8B"/>
<path opacity="0.1" d="M111.712 57.9314C112.082 58.0073 112.409 58.2231 112.625 58.5338C112.878 58.9355 112.872 59.4857 113.227 59.799C113.495 59.9972 113.83 60.0823 114.16 60.036C114.487 59.9885 114.817 59.977 115.146 60.0018C115.678 60.0882 116.113 60.4818 116.408 60.9316C116.677 61.3981 116.915 61.881 117.123 62.3775C117.208 62.5744 117.329 62.7536 117.48 62.9056C117.556 62.981 117.649 63.0374 117.752 63.0701C117.854 63.1029 117.962 63.1112 118.068 63.0944C118.343 62.4919 118.106 61.761 118.369 61.1605C118.511 60.9062 118.669 60.6607 118.841 60.4255C119.242 59.7448 119.188 58.8933 119.07 58.1121C118.943 57.2707 118.751 56.4132 118.267 55.7144C117.783 55.0155 116.95 54.5095 116.107 54.6119C115.437 54.7003 114.849 55.1601 114.174 55.2003C113.699 55.2284 113.239 55.0417 112.786 54.8951C112.298 54.7378 111.798 54.6236 111.29 54.5537C110.953 54.5075 110.558 54.4995 110.331 54.7545C110.241 54.865 110.173 54.9918 110.13 55.128L109.695 56.3329C109.672 56.3738 109.66 56.4198 109.66 56.4664C109.66 56.5131 109.672 56.5591 109.695 56.6C109.735 56.6482 109.803 56.6622 109.855 56.6984C110.2 56.9213 109.737 57.4715 110.022 57.7426C110.307 58.0137 111.312 57.837 111.712 57.9314Z" fill="black"/>
<path d="M111.81 57.833C112.181 57.9089 112.508 58.1246 112.723 58.4354C112.976 58.8371 112.97 59.3873 113.325 59.7006C113.594 59.8988 113.929 59.9839 114.259 59.9375C114.585 59.8901 114.915 59.8786 115.244 59.9034C115.776 59.9897 116.212 60.3833 116.507 60.8332C116.775 61.2996 117.014 61.7825 117.221 62.279C117.306 62.476 117.427 62.6551 117.578 62.8072C117.655 62.8825 117.748 62.9389 117.85 62.9717C117.952 63.0045 118.061 63.0128 118.167 62.9959C118.442 62.3935 118.205 61.6625 118.468 61.0621C118.61 60.8077 118.767 60.5623 118.939 60.3271C119.341 59.6463 119.286 58.7949 119.168 58.0137C119.042 57.1723 118.849 56.3148 118.365 55.616C117.882 54.9171 117.049 54.4111 116.206 54.5135C115.535 54.6018 114.947 55.0617 114.273 55.1019C113.797 55.13 113.338 54.9432 112.884 54.7966C112.396 54.6394 111.896 54.5252 111.389 54.4553C111.051 54.4091 110.656 54.401 110.429 54.6561C110.339 54.7666 110.271 54.8934 110.229 55.0296L109.793 56.2345C109.771 56.2754 109.759 56.3213 109.759 56.368C109.759 56.4147 109.771 56.4607 109.793 56.5016C109.833 56.5498 109.901 56.5638 109.954 56.6C110.299 56.8229 109.835 57.3731 110.12 57.6442C110.405 57.9153 111.411 57.7386 111.81 57.833Z" fill="#472727"/>
<path d="M132.888 65.8235C132.888 65.8235 129.842 68.675 125.615 69.2654C125.615 69.2654 124.358 69.5506 123.455 71.2114C123.126 71.8356 122.893 72.5058 122.763 73.1994L118.227 65.5102L117.946 65.0343H125.514C126.096 64.3363 126.815 63.7663 127.627 63.3602C128.439 62.9541 129.326 62.7207 130.233 62.6747L131.413 61.8875C131.413 61.8875 130.233 52.7403 128.465 52.2483C128.465 52.2483 127.602 51.3848 126.62 50.5454C126.018 50.0393 125.626 49.3263 125.522 48.5462C125.417 47.766 125.608 46.975 126.056 46.3282C126.08 46.2941 126.105 46.26 126.131 46.2278C127.134 44.9165 129.232 45.3724 129.653 46.9749C129.946 48.0634 130.173 49.1686 130.333 50.2843L130.825 51.9571L132.595 55.5959L135.445 62.4799C135.445 62.4799 136.033 64.0543 132.888 65.8235Z" fill="#DB8B8B"/>
<path d="M110.279 66.2171L109.689 71.4383L108.362 71.5126L107.918 71.5367C107.918 71.5367 106.148 73.3079 104.38 73.8963C102.612 74.4847 100.251 76.0611 100.251 76.0611L93.076 79.2018L90.7177 80.2842C90.7177 80.2842 84.8189 84.4231 83.6388 82.5454C82.4586 80.6678 88.7568 78.8002 88.7568 78.8002L92.8854 76.6354C98.5875 71.7174 100.552 72.2175 100.552 72.2175L104.968 69.6611C106.047 68.0808 107.643 66.9267 109.482 66.3978C109.743 66.3181 110.009 66.2577 110.279 66.2171Z" fill="#DB8B8B"/>
<path opacity="0.1" d="M123.455 71.2114C123.126 71.8356 122.893 72.5058 122.763 73.1994L118.227 65.5102C118.335 65.3602 118.43 65.2009 118.51 65.0343C118.626 64.7986 118.717 64.5517 118.783 64.2973L119.439 64.4459L121.215 64.8475L121.831 64.9861C121.831 65.0021 121.819 65.0182 121.815 65.0343C120.988 67.4641 122.548 70.0085 123.455 71.2114Z" fill="black"/>
<path opacity="0.1" d="M110.279 66.2171L109.689 71.4383L108.362 71.5126C108.926 70.5085 109.309 67.8497 109.484 66.4058C109.744 66.3235 110.009 66.2604 110.279 66.2171Z" fill="black"/>
<path d="M123.098 75.0188C121.623 77.7371 120.863 80.786 120.89 83.8788V84.2644V84.3146C120.89 84.3146 121.972 87.2646 120.89 87.2646C119.808 87.2646 119.907 88.7406 118.532 89.0358C117.157 89.331 112.338 91.3954 110.865 90.5118C109.392 89.6282 108.408 87.7586 108.408 87.7586V71.7254C108.428 71.7013 108.448 71.6752 108.466 71.6471C109.315 70.4422 109.785 65.4218 109.785 65.4218C110.066 65.465 110.348 65.4925 110.632 65.5042C111.477 65.5443 112.438 65.5042 112.924 65.4801L113.225 65.462C114.074 66.1267 115.232 66.2231 115.806 66.2231C116.008 66.2238 116.209 66.2386 116.408 66.2673C118.068 66.5002 118.574 64.2932 118.574 64.2932L119.23 64.4418L121.007 64.8435L121.623 64.982C120.517 68.1168 123.429 71.4684 123.796 71.874L123.834 71.9162C123.866 72.9972 123.612 74.0674 123.098 75.0188Z" fill="#6C63FF"/>
<path opacity="0.3" d="M110.634 65.5122C110.634 66.8155 110.323 71.1351 108.412 71.7596V71.7255C108.432 71.7014 108.452 71.6753 108.47 71.6471C109.319 70.4422 109.789 65.4218 109.789 65.4218C110.069 65.4676 110.351 65.4978 110.634 65.5122Z" fill="white"/>
<path opacity="0.3" d="M123.806 71.8801C120.21 71.6953 120.635 66.9882 121.017 64.8515L121.633 64.9901C120.527 68.1228 123.437 71.4744 123.806 71.8801Z" fill="white"/>
<g opacity="0.1">
<path opacity="0.1" d="M123.845 72.0206C123.843 72.0105 123.839 72.0009 123.832 71.9933C123.826 71.9858 123.816 71.9805 123.806 71.9785C123.004 71.7777 123.895 72.0688 123.004 71.7777C122.969 71.7656 123.052 71.6311 123.052 71.6311C123.079 72.7109 122.821 73.7789 122.305 74.7276C120.83 77.446 120.071 80.4948 120.097 83.5877V83.9732V84.0214C120.097 84.0214 121.179 86.9714 120.097 86.9714C119.016 86.9714 119.114 88.4474 117.739 88.7426C116.479 89.0137 112.334 90.7668 110.514 90.3793C110.626 90.4616 110.74 90.5399 110.859 90.6102C112.334 91.4958 117.151 89.4294 118.526 89.1342C119.901 88.839 119.804 87.363 120.884 87.363C121.964 87.363 120.884 84.413 120.884 84.413V84.3628V83.9772C120.857 80.8844 121.617 77.8355 123.092 75.1172C123.61 74.1691 123.87 73.1011 123.845 72.0206Z" fill="black"/>
<path opacity="0.1" d="M113.464 65.6708C113.418 65.6387 113.37 65.6046 113.325 65.5704H113.221C113.301 65.6106 113.384 65.6407 113.464 65.6708Z" fill="black"/>
</g>
<path d="M144.487 114.903L143.309 117.558C142.973 117.004 142.604 116.471 142.205 115.961C141.633 115.196 140.957 114.514 140.198 113.935C139.376 113.337 138.601 112.678 137.878 111.963C137.324 111.427 136.718 110.895 136.288 110.672C136.039 110.546 135.8 110.4 135.576 110.234C134.793 109.631 133.256 108.396 132.892 107.527C132.892 107.527 129.747 104.577 128.37 103.987L126.998 102.38L125.42 100.539L129.45 96.5061L130.636 98.1669L132.401 100.637C133.199 101.629 134.112 102.523 135.12 103.3C136.125 104.029 137.053 104.859 137.89 105.776C139.209 107.211 140.367 108.788 141.342 110.477L143.877 114.041L143.895 114.07L144.297 114.63L144.487 114.903Z" fill="#DB8B8B"/>
<path d="M119.519 115.198L117.946 118.935L116.669 117.558L116.143 116.453L115.686 115.491L113.424 114.114L111.216 112.672C110.835 112.423 110.419 112.232 109.982 112.106C108.073 111.547 108.402 110.475 108.402 110.475L108.577 107.692L108.697 105.754L113.916 105.163L113.655 106.639L113.325 108.507C115.292 108.802 116.569 112.047 116.569 112.047C117.346 113.214 118.082 113.698 118.494 113.891C118.601 113.945 118.714 113.986 118.831 114.013L119.519 115.198Z" fill="#DB8B8B"/>
<path opacity="0.1" d="M143.896 114.072L143.849 114.045H143.877L143.896 114.072Z" fill="black"/>
<path opacity="0.1" d="M144.487 114.903L143.309 117.558C142.973 117.004 142.604 116.471 142.205 115.961C142.386 116.134 143.395 117.054 143.719 116.214C143.842 115.872 143.985 115.537 144.146 115.21C144.246 115.036 144.296 114.838 144.293 114.638L144.487 114.903Z" fill="black"/>
<path opacity="0.1" d="M144.391 114.728L143.99 114.168L143.971 114.14L141.437 110.575C140.459 108.888 139.3 107.312 137.978 105.878C137.141 104.961 136.213 104.131 135.209 103.402C134.2 102.625 133.287 101.732 132.489 100.739L130.731 98.2793L129.545 96.6186L129.372 96.7913L130.434 98.2793L132.198 100.749C132.997 101.739 133.911 102.63 134.92 103.404C135.924 104.133 136.852 104.963 137.689 105.88C139.008 107.314 140.166 108.888 141.141 110.575L143.68 114.144L143.699 114.172L144.1 114.732L144.301 115.005L143.245 117.383C143.355 117.558 143.418 117.66 143.418 117.66L144.598 115.005L144.391 114.728Z" fill="black"/>
<path opacity="0.1" d="M119.519 115.198L117.946 118.935L116.669 117.558L116.143 116.453L117.653 117.457C119.136 116.53 118.564 114.158 118.496 113.893C118.603 113.947 118.716 113.988 118.833 114.015L119.519 115.198Z" fill="black"/>
<path d="M118.586 113.969C118.586 113.969 119.323 116.58 117.751 117.56L115.686 116.182C115.686 116.182 115.284 117.166 116.571 118.445C117.049 118.874 117.423 119.408 117.661 120.005C117.9 120.602 117.998 121.246 117.948 121.887C117.948 121.887 118.148 124.247 119.325 123.658C119.325 123.658 121.193 123.257 121.095 120.02C121.095 120.02 120.35 117.319 121.217 116.176C121.241 116.145 121.266 116.115 121.292 116.086C122.275 115.003 120.996 113.333 120.996 113.333C120.996 113.333 118.684 112.397 118.586 113.969Z" fill="#535461"/>
<path opacity="0.1" d="M120.896 87.2666C119.814 87.2666 119.913 88.7426 118.538 89.0378C117.163 89.333 112.344 91.3974 110.871 90.5138C109.398 89.6302 108.414 87.7606 108.414 87.7606V87.5598C110.871 88.839 113.92 87.5598 113.92 87.5598C116.091 87.9775 119.826 85.1279 120.898 84.2624V84.3126C120.898 84.3126 121.976 87.2666 120.896 87.2666Z" fill="black"/>
<path opacity="0.1" d="M108.705 105.756L113.924 105.165L113.663 106.641C112.047 107.392 109.721 107.623 108.593 107.694L108.705 105.756Z" fill="black"/>
<path opacity="0.1" d="M130.632 98.1709C130.386 99.9782 128.366 101.531 126.994 102.388L125.416 100.547L129.446 96.5142L130.632 98.1709Z" fill="black"/>
<path d="M113.916 87.7566C113.916 87.7566 110.869 89.0358 108.41 87.7566L107.918 94.4458C107.918 94.4458 108.017 97.3958 107.623 99.0645C107.23 100.733 107.918 107.523 107.918 107.523C107.918 107.523 114.014 107.425 115.192 105.163C115.192 105.163 117.747 100.049 117.257 98.2794L122.566 99.4602L125.713 102.898C125.713 102.898 131.12 100.342 130.628 97.193L123.353 88.6402L121.191 84.2222C121.191 84.2222 116.473 88.2486 113.916 87.7566Z" fill="#6C63FF"/>
<path opacity="0.1" d="M125.713 102.898L122.568 99.4561L117.257 98.2794C117.269 98.3235 117.279 98.3697 117.289 98.4179C117.306 98.5122 117.315 98.6075 117.318 98.7031C117.4 100.749 115.194 105.165 115.194 105.165C114.014 107.429 107.92 107.525 107.92 107.525C107.92 107.525 107.222 100.741 107.623 99.0686C108.025 97.3958 107.918 94.4498 107.918 94.4498L108.392 88.0096L108.41 87.7626C109.096 88.1084 109.85 88.3002 110.618 88.3249C111.706 88.3563 112.79 88.1798 113.811 87.8048L113.916 87.7626C113.973 87.7733 114.032 87.782 114.092 87.7887C116.204 88.0217 119.59 85.5034 120.768 84.5656C121.035 84.3528 121.189 84.2222 121.189 84.2222L123.353 88.6402L130.626 97.197C130.642 97.2953 130.651 97.3946 130.655 97.4942C130.781 100.506 125.713 102.898 125.713 102.898Z" fill="black"/>
<path opacity="0.3" d="M119.24 64.4479C117.051 68.406 113.821 66.215 112.926 65.4881L113.227 65.47C114.076 66.1347 115.234 66.2311 115.808 66.2311C116.01 66.2319 116.211 66.2466 116.41 66.2753C118.07 66.5082 118.576 64.3013 118.576 64.3013L119.24 64.4479Z" fill="white"/>
<path d="M143.951 114.144C144.288 114.125 144.624 114.194 144.926 114.345C145.227 114.496 145.484 114.723 145.671 115.003C145.671 115.003 148.224 117.156 149.599 117.357C149.599 117.357 153.728 119.128 152.548 121.586C151.368 124.044 148.517 121.787 148.517 121.787C148.517 121.787 145.471 119.034 144.487 119.23C144.487 119.23 141.784 117.608 142.279 116.033C142.279 116.033 143.464 117.238 143.821 116.313C143.944 115.97 144.086 115.635 144.246 115.309C144.437 114.931 144.535 114.439 143.951 114.144Z" fill="#535461"/>
<path opacity="0.1" d="M113.269 87.7807C112.242 88.0799 110.174 88.4795 108.412 87.5618L108.38 88.0016C110.518 88.7788 112.882 87.9313 113.269 87.7807Z" fill="black"/>
<path opacity="0.1" d="M115.503 87.4353C114.991 87.6011 114.448 87.6472 113.916 87.5698C113.916 87.5698 113.699 87.6602 113.337 87.7706C113.966 87.8771 114.72 87.7224 115.503 87.4353Z" fill="black"/>
<path opacity="0.1" d="M130.657 97.4961C130.562 100.414 125.713 102.707 125.713 102.707L125.645 102.633C126.988 101.896 130.436 99.7413 130.038 97.1989L122.763 88.6402L120.768 84.5576C121.035 84.3447 121.189 84.2142 121.189 84.2142L123.353 88.6321L130.626 97.1889C130.643 97.2906 130.653 97.3932 130.657 97.4961Z" fill="black"/>
<path opacity="0.1" d="M116.669 98.2793C117.161 100.051 114.604 105.163 114.604 105.163C114.255 105.832 113.478 106.312 112.555 106.655C113.727 106.306 114.773 105.774 115.194 104.967C115.194 104.967 117.462 100.428 117.314 98.4219L116.669 98.2793Z" fill="black"/>
<path opacity="0.3" d="M114.997 72.7576C113.612 72.7576 112.49 74.3642 112.49 76.3482C112.49 78.3323 113.612 79.9388 114.997 79.9388C116.382 79.9388 117.504 78.3323 117.504 76.3482C117.504 74.3642 116.382 72.7576 114.997 72.7576ZM114.997 78.4628C114.182 78.4628 113.52 77.517 113.52 76.3482C113.52 75.1795 114.18 74.2336 114.997 74.2336C115.814 74.2336 116.475 75.1795 116.475 76.3482C116.475 77.517 115.812 78.4628 114.997 78.4628Z" fill="white"/>
<path d="M131.427 47.4187C131.427 47.5352 131.427 47.6503 131.427 47.7641C131.427 47.8263 131.427 47.8886 131.413 47.9488C131.329 48.9804 130.984 49.9735 130.41 50.8346C130.372 50.8928 130.331 50.949 130.291 51.0053C129.744 51.7732 129.021 52.3993 128.184 52.8317C127.346 53.2641 126.417 53.4903 125.474 53.4914C125.34 53.4914 125.205 53.4914 125.073 53.4773C124.94 53.4633 124.826 53.4572 124.704 53.4412C123.853 53.3257 123.037 53.0274 122.312 52.5668C121.587 52.1061 120.971 51.4939 120.505 50.7723C120.473 50.7261 120.443 50.6759 120.414 50.6297V50.6197C119.826 49.656 119.515 48.5481 119.517 47.4187C119.517 47.1176 119.538 46.817 119.582 46.519L119.614 46.3182C119.776 45.3994 120.149 44.5305 120.701 43.779C121.254 43.0274 121.973 42.4134 122.801 41.9846L123.018 41.8782C123.722 41.5529 124.484 41.37 125.259 41.34C126.034 41.31 126.808 41.4336 127.536 41.7035C127.725 41.7739 127.911 41.8544 128.092 41.9444C129.425 42.6089 130.466 43.7423 131.016 45.1274C131.036 45.1736 131.052 45.2177 131.068 45.2639C131.315 45.955 131.437 46.6847 131.427 47.4187Z" fill="#F88787"/>
<path opacity="0.5" d="M131.044 45.2639C130.662 45.3772 130.266 45.4347 129.868 45.4346H129.799H129.643C129.547 45.4346 129.452 45.4226 129.362 45.4105C128.581 45.3171 127.833 45.042 127.178 44.6073C125.426 42.82 123.71 42.2095 122.783 41.9966L123 41.8902C123.911 42.1212 125.39 42.6935 126.929 44.1393C127.326 44.5151 127.794 44.8073 128.306 44.9988C128.658 45.1289 129.024 45.2172 129.396 45.2619C129.476 45.2619 129.555 45.278 129.633 45.284H129.791C130.198 45.2951 130.604 45.2437 130.996 45.1314C131.01 45.1816 131.028 45.2258 131.044 45.2639Z" fill="white"/>
<path opacity="0.5" d="M131.417 47.7641C131.417 47.8263 131.417 47.8886 131.403 47.9488C130.89 47.6203 130.341 47.3509 129.767 47.1456L129.617 47.0913C128.249 46.6315 126.836 46.3192 125.402 46.1596C122.03 45.7298 120.348 46.1314 119.547 46.513L119.579 46.3122C120.447 45.9306 122.155 45.5832 125.422 45.9989C126.855 46.159 128.268 46.4679 129.637 46.9207L129.787 46.9749C130.358 47.178 130.904 47.4426 131.417 47.7641Z" fill="white"/>
<path opacity="0.5" d="M129.787 46.9889C129.787 47.0431 129.775 47.0974 129.769 47.1536C129.735 47.428 129.685 47.7152 129.621 48.0151C129.571 48.2414 129.516 48.4589 129.456 48.6678C129.44 48.722 129.424 48.7762 129.408 48.8284C128.645 51.2723 127.094 52.5114 125.868 53.1299C125.607 53.2623 125.339 53.379 125.065 53.4793L124.695 53.4432C125.081 53.3232 125.455 53.1714 125.815 52.9893C127.02 52.3869 128.543 51.1559 129.286 48.736C129.302 48.6878 129.316 48.6376 129.33 48.5874C129.386 48.3933 129.437 48.1925 129.482 47.985C129.548 47.6838 129.598 47.3892 129.633 47.1014C129.633 47.0472 129.645 46.9909 129.651 46.9367C129.702 46.4387 129.702 45.9367 129.651 45.4386C129.651 45.3864 129.641 45.3342 129.633 45.284C129.511 44.2023 129.042 43.1892 128.296 42.3963C128.053 42.1411 127.784 41.9116 127.493 41.7115C127.683 41.782 127.868 41.8624 128.049 41.9525C128.167 42.0556 128.283 42.168 128.399 42.2898C129.166 43.1154 129.645 44.1672 129.765 45.288C129.765 45.3382 129.777 45.3904 129.783 45.4406C129.838 45.9552 129.84 46.4741 129.787 46.9889Z" fill="white"/>
<path opacity="0.5" d="M130.394 50.8366C130.355 50.8948 130.315 50.951 130.275 51.0073C130.107 50.2763 129.836 49.5726 129.472 48.9168C129.453 48.8841 129.43 48.8544 129.402 48.8284C129.362 48.7918 129.317 48.7614 129.268 48.738C128.495 48.3545 126.187 48.9971 124.471 49.9249C123.15 50.6398 121.422 50.7663 120.477 50.7743L120.386 50.6317V50.6217C121.29 50.6217 123.064 50.5133 124.401 49.7903C126.006 48.9268 128.395 48.1838 129.314 48.5854C129.363 48.6067 129.409 48.633 129.452 48.6637C129.515 48.7088 129.569 48.7662 129.609 48.8324C129.957 49.4634 130.22 50.1372 130.394 50.8366Z" fill="white"/>
<path opacity="0.1" d="M60.8585 149.516H52.0274V150.52H60.8585V149.516Z" fill="black"/>
<path opacity="0.3" d="M36.5047 19.192L15.9 39.9704V44.8904L39.2824 18.2943L36.5047 19.192Z" fill="white"/>
<path opacity="0.3" d="M43.6157 17.1939L15.9 52.3206V57.5278L50.5301 16.1617L43.6157 17.1939Z" fill="white"/>
</g>
<defs>
<linearGradient id="paint0_linear_23_629" x1="56.5533" y1="153.909" x2="56.5533" y2="71.6471" gradientUnits="userSpaceOnUse">
<stop stop-color="#808080" stop-opacity="0.25"/>
<stop offset="0.54" stop-color="#808080" stop-opacity="0.12"/>
<stop offset="1" stop-color="#808080" stop-opacity="0.1"/>
</linearGradient>
<linearGradient id="paint1_linear_23_629" x1="8024.53" y1="5129.59" x2="8024.53" y2="4929.19" gradientUnits="userSpaceOnUse">
<stop stop-color="#808080" stop-opacity="0.25"/>
<stop offset="0.54" stop-color="#808080" stop-opacity="0.12"/>
<stop offset="1" stop-color="#808080" stop-opacity="0.1"/>
</linearGradient>
<linearGradient id="paint2_linear_23_629" x1="32849.1" y1="24886.7" x2="32849.1" y2="7177.01" gradientUnits="userSpaceOnUse">
<stop stop-color="#808080" stop-opacity="0.25"/>
<stop offset="0.54" stop-color="#808080" stop-opacity="0.12"/>
<stop offset="1" stop-color="#808080" stop-opacity="0.1"/>
</linearGradient>
<linearGradient id="paint3_linear_23_629" x1="30775.1" y1="22793.8" x2="30775.1" y2="7251.27" gradientUnits="userSpaceOnUse">
<stop stop-color="#808080" stop-opacity="0.25"/>
<stop offset="0.54" stop-color="#808080" stop-opacity="0.12"/>
<stop offset="1" stop-color="#808080" stop-opacity="0.1"/>
</linearGradient>
<linearGradient id="paint4_linear_23_629" x1="6087.09" y1="6168.79" x2="6087.09" y2="4479.78" gradientUnits="userSpaceOnUse">
<stop stop-color="#808080" stop-opacity="0.25"/>
<stop offset="0.54" stop-color="#808080" stop-opacity="0.12"/>
<stop offset="1" stop-color="#808080" stop-opacity="0.1"/>
</linearGradient>
<linearGradient id="paint5_linear_23_629" x1="5063.01" y1="5012.14" x2="5063.01" y2="3847.95" gradientUnits="userSpaceOnUse">
<stop stop-color="#808080" stop-opacity="0.25"/>
<stop offset="0.54" stop-color="#808080" stop-opacity="0.12"/>
<stop offset="1" stop-color="#808080" stop-opacity="0.1"/>
</linearGradient>
<linearGradient id="paint6_linear_23_629" x1="13035.4" y1="13750.2" x2="13035.4" y2="10415.9" gradientUnits="userSpaceOnUse">
<stop stop-color="#808080" stop-opacity="0.25"/>
<stop offset="0.54" stop-color="#808080" stop-opacity="0.12"/>
<stop offset="1" stop-color="#808080" stop-opacity="0.1"/>
</linearGradient>
<linearGradient id="paint7_linear_23_629" x1="11079.5" y1="13040.2" x2="11079.5" y2="10044.2" gradientUnits="userSpaceOnUse">
<stop stop-color="#808080" stop-opacity="0.25"/>
<stop offset="0.54" stop-color="#808080" stop-opacity="0.12"/>
<stop offset="1" stop-color="#808080" stop-opacity="0.1"/>
</linearGradient>
<linearGradient id="paint8_linear_23_629" x1="5392.95" y1="11152.4" x2="5392.95" y2="8373.23" gradientUnits="userSpaceOnUse">
<stop stop-color="#808080" stop-opacity="0.25"/>
<stop offset="0.54" stop-color="#808080" stop-opacity="0.12"/>
<stop offset="1" stop-color="#808080" stop-opacity="0.1"/>
</linearGradient>
<linearGradient id="paint9_linear_23_629" x1="13164.4" y1="2453.27" x2="13164.4" y2="2289.76" gradientUnits="userSpaceOnUse">
<stop stop-color="#808080" stop-opacity="0.25"/>
<stop offset="0.54" stop-color="#808080" stop-opacity="0.12"/>
<stop offset="1" stop-color="#808080" stop-opacity="0.1"/>
</linearGradient>
<linearGradient id="paint10_linear_23_629" x1="13164.4" y1="2453.27" x2="13164.4" y2="2289.76" gradientUnits="userSpaceOnUse">
<stop stop-color="#808080" stop-opacity="0.25"/>
<stop offset="0.54" stop-color="#808080" stop-opacity="0.12"/>
<stop offset="1" stop-color="#808080" stop-opacity="0.1"/>
</linearGradient>
<linearGradient id="paint11_linear_23_629" x1="13164.4" y1="2435.18" x2="13164.4" y2="2271.67" gradientUnits="userSpaceOnUse">
<stop stop-color="#808080" stop-opacity="0.25"/>
<stop offset="0.54" stop-color="#808080" stop-opacity="0.12"/>
<stop offset="1" stop-color="#808080" stop-opacity="0.1"/>
</linearGradient>
<linearGradient id="paint12_linear_23_629" x1="48412.7" y1="53967.1" x2="48412.7" y2="22330.1" gradientUnits="userSpaceOnUse">
<stop stop-color="#808080" stop-opacity="0.25"/>
<stop offset="0.54" stop-color="#808080" stop-opacity="0.12"/>
<stop offset="1" stop-color="#808080" stop-opacity="0.1"/>
</linearGradient>
<clipPath id="clip0_23_629">
<rect width="202" height="158" fill="white"/>
</clipPath>
</defs>
</svg>
