<svg width="293" height="110" viewBox="0 0 293 110" fill="none" xmlns="http://www.w3.org/2000/svg">
<path opacity="0.1" d="M263.054 95.5854C263.427 95.0541 263.632 94.4235 263.644 93.7745C263.644 89.8421 255.635 86.66 245.756 86.66C235.876 86.66 227.867 89.8421 227.867 93.7745C227.885 94.5097 228.144 95.2187 228.604 95.7924C217.604 97.0212 210.194 99.3237 210.194 101.967C210.194 105.895 226.574 109.081 246.833 109.081C267.093 109.081 283.473 105.895 283.473 101.967C283.451 99.1857 275.123 96.7496 263.054 95.5854Z" fill="#6C63FF"/>
<path opacity="0.1" d="M272.537 9.78109C272.91 9.24984 273.116 8.61918 273.128 7.97014C273.128 4.0378 265.119 0.855713 255.239 0.855713C245.359 0.855713 237.35 4.0378 237.35 7.97014C237.358 8.7014 237.605 9.41 238.053 9.98805C227.052 11.2169 219.642 13.5194 219.642 16.1625C219.642 20.0905 236.022 23.2769 256.282 23.2769C276.541 23.2769 292.922 20.0905 292.922 16.1625C292.934 13.3814 284.607 10.9453 272.537 9.78109Z" fill="#6C63FF"/>
<path opacity="0.1" d="M53.1308 17.5423C53.5037 17.0111 53.7094 16.3804 53.7213 15.7314C53.7213 11.799 45.7123 8.61694 35.8326 8.61694C25.9529 8.61694 17.9439 11.799 17.9439 15.7314C17.9618 16.4666 18.2208 17.1757 18.681 17.7493C7.6805 18.9781 0.270691 21.2806 0.270691 23.9237C0.270691 27.8518 16.6723 31.0382 36.9102 31.0382C57.1482 31.0382 73.5498 27.8518 73.5498 23.9237C73.5282 21.1426 65.2003 18.7065 53.1308 17.5423Z" fill="#6C63FF"/>
</svg>
