<svg width="40" height="40" viewBox="0 0 45 45" fill="none" xmlns="http://www.w3.org/2000/svg">
<path d="M44.1926 22.3499C44.1921 23.5806 44.0895 24.8092 43.886 26.0231V26.0279C43.3273 29.2931 42.0329 32.3889 40.1007 35.0817C38.1686 37.7744 35.649 39.9936 32.7323 41.572C29.8156 43.1503 26.5779 44.0464 23.2636 44.1926C19.9493 44.3389 16.6451 43.7315 13.6003 42.4162H13.5954C12.6945 42.0281 11.8214 41.5784 10.9824 41.0704C8.38199 39.5027 6.1361 37.4127 4.38712 34.9328C2.63814 32.453 1.42421 29.6373 0.822264 26.6644C0.540102 25.2435 0.398311 23.7984 0.398928 22.3499C0.398928 21.6891 0.42812 21.0332 0.486512 20.387V20.3822C0.991418 14.8029 3.6219 9.63003 7.83519 5.93089C12.0485 2.23175 17.5231 0.288599 23.1294 0.502393C28.7357 0.716186 34.0459 3.0706 37.9643 7.07985C41.8828 11.0891 44.1105 16.4472 44.1877 22.0487V22.0536C44.1926 22.1555 44.1926 22.2479 44.1926 22.3499Z" fill="#6C63FF"/>
<path d="M27.6859 15.0472H17.879L12.9752 6.56871L16.3013 0.812314L16.4957 0.760121C20.7063 -0.363312 25.1533 -0.239171 29.2945 1.1174L29.4708 1.17577L32.5897 6.56871L27.6859 15.0472ZM18.4406 14.0755H27.1243L31.4659 6.56871L28.8143 1.98333C24.9662 0.764921 20.8531 0.648538 16.9421 1.6474L14.099 6.56871L18.4406 14.0755Z" fill="white"/>
<path d="M27.1992 32.5389H17.3923L12.4885 24.0585L17.3923 15.5781H27.1993L32.103 24.0585L27.1992 32.5389ZM17.9539 31.5672H26.6376L30.9792 24.0585L26.6376 16.5499H17.9539L13.6124 24.0585L17.9539 31.5672Z" fill="white"/>
<path d="M22.2958 44.6998C19.2374 44.7056 16.2109 44.0798 13.4064 42.8617L12.9062 42.6449L17.8787 34.0397H27.6859L32.4487 42.2776L31.9757 42.5044C28.9567 43.9572 25.6471 44.7078 22.2958 44.6998V44.6998ZM14.2976 42.1813C16.9731 43.2561 19.8383 43.7808 22.7216 43.7239C25.605 43.667 28.4472 43.0297 31.078 41.8501L27.1242 35.0114H18.4408L14.2976 42.1813Z" fill="white"/>
<path d="M43.7436 23.7928H33.9366L29.0328 15.3144L33.9363 6.83112H38.402L38.5459 6.98248C42.4185 11.0506 44.6077 16.4302 44.6745 22.0425V22.1834L43.7436 23.7928ZM34.4982 22.8211H43.1819L43.6994 21.9267C43.6054 16.6755 41.569 11.6446 37.9824 7.80285H34.4985L30.1567 15.3144L34.4982 22.8211Z" fill="white"/>
<path d="M33.8014 41.5327L29.0328 33.2915L33.9363 24.8082H43.7431L44.3727 25.8919L44.3658 26.1093C43.8342 29.2034 42.6571 32.1513 40.9108 34.7619C39.1645 37.3725 36.8881 39.5873 34.2293 41.2627L33.8014 41.5327ZM30.1567 33.2915L34.1345 40.1657C36.5443 38.567 38.6054 36.4981 40.1938 34.0834C41.7822 31.6688 42.865 28.9583 43.3772 26.1149L43.1823 25.78H34.4985L30.1567 33.2915Z" fill="white"/>
<path d="M11.1557 41.7424L10.7309 41.4862C8.0736 39.8826 5.77853 37.7457 3.99087 35.2109C2.2032 32.676 0.961846 29.7983 0.345319 26.7598L0.309204 26.5799L1.33467 24.8082H11.1419L16.0454 33.2915L11.1557 41.7424ZM1.33633 26.7474C1.92734 29.537 3.06986 32.1809 4.697 34.524C6.32414 36.8672 8.40318 38.8626 10.8124 40.3935L14.9216 33.2915L10.5797 25.78H1.89634L1.33633 26.7474Z" fill="white"/>
<path d="M11.1416 22.8211H1.33481L0 20.5175V20.387C0.480437 14.8808 2.99316 9.74944 7.05018 5.98938L7.19036 5.85938H11.1418L16.0453 14.3426L11.1416 22.8211ZM1.89601 21.8494H10.5799L14.9215 14.3426L10.5797 6.83108H7.57433C3.82028 10.3688 1.47904 15.1463 0.985087 20.2769L1.89601 21.8494Z" fill="white"/>
</svg>