<svg width="69" height="55" viewBox="0 0 69 55" fill="none" xmlns="http://www.w3.org/2000/svg">
<path d="M57.0653 0.274735L43.2351 4.31861L46.5642 14.3747C48.2028 19.3242 48.7679 24.5654 48.2222 29.7502V29.7502C48.2222 29.7502 63.086 32.4471 62.9293 30.5099C62.7725 28.5728 58.7504 21.099 59.2894 15.6934C59.8283 10.2877 57.0653 0.274735 57.0653 0.274735Z" fill="#6C63FF"/>
<path d="M68.6823 30.0656C67.5039 28.4454 60.4577 21.7865 60.8594 23.2318C61.2611 24.6771 54.9501 29.843 51.1518 28.2319C51.1518 28.2319 46.2692 26.5344 46.188 30.2347C46.1068 33.9349 45.5809 40.4342 45.5809 40.4342C45.5809 40.4342 35.7604 51.2075 38.838 53.6332C39.4604 54.1239 40.5804 53.9848 41.9709 53.4513C41.9721 53.5478 41.9909 53.6432 42.0264 53.7329L42.1553 54.0522C42.2346 54.2489 42.389 54.4059 42.5843 54.4888C42.7797 54.5716 43.0001 54.5735 43.1971 54.4941L43.5168 54.3651C43.7138 54.2856 43.8711 54.1313 43.9543 53.936C44.0375 53.7408 44.0396 53.5206 43.9603 53.3239L43.8314 53.0046C43.7843 52.8899 43.7109 52.7879 43.617 52.7069C43.973 52.5257 44.3387 52.3285 44.7115 52.1181C44.6595 52.2898 44.6675 52.474 44.7339 52.6405L44.8628 52.9598C44.9421 53.1565 45.0965 53.3135 45.2918 53.3964C45.4872 53.4792 45.7076 53.4811 45.9046 53.4017L46.2243 53.2727C46.4213 53.1932 46.5787 53.0389 46.6618 52.8436C46.745 52.6484 46.7471 52.4282 46.6678 52.2315L46.5389 51.9122C46.4853 51.7803 46.3972 51.6652 46.2839 51.5789C46.1705 51.4926 46.036 51.4383 45.8944 51.4217C46.8632 50.8295 47.8584 50.172 48.8378 49.493C48.8134 49.6363 48.829 49.7836 48.8829 49.9187L49.0117 50.238C49.091 50.4346 49.2454 50.5917 49.4408 50.6746C49.6361 50.7574 49.8565 50.7593 50.0535 50.6799L50.3733 50.5509C50.5702 50.4714 50.7276 50.3171 50.8107 50.1218C50.8939 49.9266 50.896 49.7064 50.8167 49.5097L50.6879 49.1904C50.6299 49.0471 50.5315 48.9237 50.4047 48.8352C50.2779 48.7468 50.1281 48.6969 49.9734 48.6919C50.7024 48.1689 51.412 47.6441 52.0841 47.1363C52.06 47.2794 52.0756 47.4263 52.1293 47.561L52.2581 47.8803C52.3375 48.077 52.4918 48.234 52.6872 48.3169C52.8826 48.3997 53.103 48.4017 53.2999 48.3222L53.6197 48.1932C53.8166 48.1137 53.974 47.9594 54.0572 47.7641C54.1403 47.5689 54.1425 47.3487 54.0631 47.152L53.9343 46.8327C53.8703 46.6752 53.7575 46.5423 53.6124 46.4534C53.4673 46.3646 53.2975 46.3245 53.1279 46.339C55.4772 44.5244 57.151 43.1009 57.151 43.1009C57.151 43.1009 59.0671 41.3793 61.341 39.1804L61.452 39.4555C61.5313 39.6522 61.6857 39.8092 61.881 39.8921C62.0764 39.975 62.2968 39.9769 62.4938 39.8974L62.8136 39.7684C63.0105 39.6889 63.1679 39.5346 63.251 39.3394C63.3342 39.1441 63.3363 38.9239 63.257 38.7273L63.1282 38.408C63.0825 38.2957 63.0118 38.1953 62.9213 38.1146C62.8309 38.0339 62.7231 37.9749 62.6063 37.9421C63.0596 37.4928 63.5151 37.0352 63.9631 36.5759L64.0654 36.8293C64.1447 37.026 64.299 37.1831 64.4944 37.2659C64.6898 37.3488 64.9102 37.3507 65.1072 37.2712L65.4269 37.1422C65.6239 37.0627 65.7813 36.9084 65.8644 36.7132C65.9476 36.5179 65.9497 36.2977 65.8704 36.1011L65.7415 35.7818C65.6934 35.6625 65.617 35.5567 65.519 35.4734C65.421 35.39 65.3043 35.3316 65.1788 35.303C65.657 34.7912 66.1135 34.2884 66.5282 33.809C66.5355 33.8339 66.54 33.8592 66.5499 33.8838L66.6787 34.2032C66.7581 34.3998 66.9124 34.5569 67.1078 34.6397C67.3032 34.7226 67.5236 34.7245 67.7205 34.645L68.0403 34.516C68.2373 34.4366 68.3946 34.2822 68.4778 34.087C68.561 33.8917 68.5631 33.6716 68.4837 33.4749L68.3549 33.1556C68.2859 32.9847 68.1599 32.8429 67.9982 32.7542C67.8365 32.6655 67.649 32.6353 67.4675 32.6688C68.434 31.4281 68.9678 30.4581 68.6823 30.0656Z" fill="#2F2E41"/>
<path d="M44.1926 27.3499C44.1921 28.5806 44.0895 29.8092 43.886 31.0231V31.0279C43.3273 34.2931 42.0329 37.3889 40.1007 40.0817C38.1686 42.7744 35.649 44.9936 32.7323 46.572C29.8156 48.1503 26.5779 49.0464 23.2636 49.1926C19.9493 49.3389 16.6451 48.7315 13.6003 47.4162H13.5954C12.6945 47.0281 11.8214 46.5784 10.9824 46.0704C8.38199 44.5027 6.1361 42.4127 4.38712 39.9328C2.63814 37.453 1.42421 34.6373 0.822264 31.6644C0.540102 30.2435 0.398311 28.7984 0.398928 27.3499C0.398928 26.6891 0.42812 26.0332 0.486512 25.387V25.3822C0.991418 19.8029 3.6219 14.63 7.83519 10.9309C12.0485 7.23175 17.5231 5.2886 23.1294 5.50239C28.7357 5.71619 34.0459 8.0706 37.9643 12.0798C41.8828 16.0891 44.1105 21.4472 44.1877 27.0487V27.0536C44.1926 27.1555 44.1926 27.2479 44.1926 27.3499Z" fill="#6C63FF"/>
<path d="M27.6859 20.0472H17.879L12.9752 11.5687L16.3013 5.81231L16.4957 5.76012C20.7063 4.63669 25.1533 4.76083 29.2945 6.1174L29.4708 6.17577L32.5897 11.5687L27.6859 20.0472ZM18.4406 19.0755H27.1243L31.4659 11.5687L28.8143 6.98333C24.9662 5.76492 20.8531 5.64854 16.9421 6.6474L14.099 11.5687L18.4406 19.0755Z" fill="white"/>
<path d="M27.1992 37.5389H17.3923L12.4885 29.0585L17.3923 20.5781H27.1993L32.103 29.0585L27.1992 37.5389ZM17.9539 36.5672H26.6376L30.9792 29.0585L26.6376 21.5499H17.9539L13.6124 29.0585L17.9539 36.5672Z" fill="white"/>
<path d="M22.2958 49.6998C19.2374 49.7056 16.2109 49.0798 13.4064 47.8617L12.9062 47.6449L17.8787 39.0397H27.6859L32.4487 47.2776L31.9757 47.5044C28.9567 48.9572 25.6471 49.7078 22.2958 49.6998ZM14.2976 47.1813C16.9731 48.2561 19.8383 48.7808 22.7216 48.7239C25.605 48.667 28.4472 48.0297 31.078 46.8501L27.1242 40.0114H18.4408L14.2976 47.1813Z" fill="white"/>
<path d="M43.7436 28.7928H33.9366L29.0328 20.3144L33.9363 11.8311H38.402L38.5459 11.9825C42.4185 16.0506 44.6077 21.4302 44.6745 27.0425V27.1834L43.7436 28.7928ZM34.4982 27.8211H43.1819L43.6994 26.9267C43.6054 21.6755 41.569 16.6446 37.9824 12.8029H34.4985L30.1567 20.3144L34.4982 27.8211Z" fill="white"/>
<path d="M33.8014 46.5327L29.0328 38.2915L33.9363 29.8082H43.7431L44.3727 30.8919L44.3658 31.1093C43.8342 34.2034 42.6571 37.1513 40.9108 39.7619C39.1645 42.3725 36.8881 44.5873 34.2293 46.2627L33.8014 46.5327ZM30.1567 38.2915L34.1345 45.1657C36.5443 43.567 38.6054 41.4981 40.1938 39.0834C41.7822 36.6688 42.865 33.9583 43.3772 31.1149L43.1823 30.78H34.4985L30.1567 38.2915Z" fill="white"/>
<path d="M11.1557 46.7424L10.7309 46.4862C8.0736 44.8826 5.77853 42.7457 3.99087 40.2109C2.2032 37.676 0.961846 34.7983 0.345319 31.7598L0.309204 31.5799L1.33467 29.8082H11.1419L16.0454 38.2915L11.1557 46.7424ZM1.33633 31.7474C1.92734 34.537 3.06986 37.1809 4.697 39.524C6.32414 41.8672 8.40318 43.8626 10.8124 45.3935L14.9216 38.2915L10.5797 30.78H1.89634L1.33633 31.7474Z" fill="white"/>
<path d="M11.1416 27.8211H1.33481L0 25.5175V25.387C0.480437 19.8808 2.99316 14.7494 7.05018 10.9894L7.19036 10.8594H11.1418L16.0453 19.3426L11.1416 27.8211ZM1.89601 26.8494H10.5799L14.9215 19.3426L10.5797 11.8311H7.57433C3.82028 15.3688 1.47904 20.1463 0.985087 25.2769L1.89601 26.8494Z" fill="white"/>
</svg>
