<svg width="20" height="34" viewBox="0 0 12 12" fill="none" xmlns="http://www.w3.org/2000/svg">
<path d="M5.69488 11.3898C8.84008 11.3898 11.3898 8.84008 11.3898 5.69488C11.3898 2.54969 8.84008 0 5.69488 0C2.54969 0 0 2.54969 0 5.69488C0 8.84008 2.54969 11.3898 5.69488 11.3898Z" fill="#02AFD9"/>
<path fill-rule="evenodd" clip-rule="evenodd" d="M2.40358 6.97244C2.46854 7.90354 3.05319 8.61811 4.13586 8.68307C5.17523 8.72638 6.19295 8.72638 7.23232 8.68307C8.18507 8.61811 8.89964 7.90354 8.9646 6.97244C9.00791 6.49606 9.02956 6.01969 9.00791 5.54331C8.76972 4.24409 7.68704 4.20079 7.60043 4.20079H7.57878H3.94098C3.81106 4.20079 3.70279 4.09252 3.70279 3.9626C3.70279 3.83268 3.81106 3.74606 3.94098 3.74606H7.60043C7.55712 2.87992 6.60437 2.70669 6.14964 2.68504H5.91145C5.32681 2.66339 4.72051 2.68504 4.13586 2.72835C3.03153 2.81496 2.46854 3.48622 2.40358 4.43898C2.33862 5.28346 2.33862 6.12795 2.40358 6.97244ZM7.88193 6.47441V6.79921C7.88193 6.90748 7.79531 6.99409 7.66539 6.99409C7.55712 6.99409 7.47051 6.90748 7.47051 6.79921V6.47441C7.36224 6.40945 7.29728 6.32283 7.29728 6.19291C7.29728 6.01969 7.47051 5.86811 7.66539 5.86811C7.86027 5.86811 8.0335 6.01969 8.0335 6.19291C8.0335 6.32283 7.96854 6.40945 7.88193 6.47441Z" 
fill="#FEFEFE"/>
</svg>
