<svg width="297" height="248" viewBox="0 0 297 248" fill="none" xmlns="http://www.w3.org/2000/svg">
<path d="M209.884 147.608C209.884 147.608 211.594 165.531 215.083 172.376C218.572 179.222 225.021 205.766 225.021 205.766L238.495 203.742C238.495 203.742 241.212 179.258 231.924 169.845C231.924 169.845 227.424 156.273 233.15 148.534L209.884 147.608Z" fill="#FFB8B8"/>
<path d="M24.9594 241.287C30.1618 241.281 35.2382 242.886 39.4893 245.881H10.449C14.6944 242.89 19.7635 241.285 24.9594 241.287V241.287Z" fill="#E6E6E6"/>
<path d="M108.587 87.5722C108.587 87.5722 127.338 81.7402 124.459 91.3354C121.581 100.931 105.787 96.0838 105.787 96.0838L108.587 87.5722Z" fill="#FFB8B8"/>
<path d="M36.9102 51.5573C36.9102 51.5573 46.5197 38.4453 55.8559 52.0572C65.2104 65.6959 73.9075 76.8924 73.9075 76.8924L97.1404 84.4562L110.581 85.6469L106.879 97.5789L67.7984 91.918C67.7984 91.918 24.2899 66.1116 36.9102 51.5573Z" fill="#2F2E41"/>
<path d="M79.8017 124.171C79.8017 124.171 94.3996 134.374 93.4264 143.606C92.4532 152.837 86.1275 178.102 86.1275 178.102L72.9894 176.159C72.9894 176.159 71.5296 156.724 76.3956 149.436L53.039 136.318L79.8017 124.171Z" fill="#FFB8B8"/>
<path d="M47.4431 148.221C47.4431 148.221 48.4163 166.198 45.9834 173.487C43.5504 180.775 41.1174 207.983 41.1174 207.983H27.4927C27.4927 207.983 21.167 184.176 28.9525 173.487C28.9525 173.487 31.3855 159.396 24.5732 152.594L47.4431 148.221Z" fill="#FFB8B8"/>
<path d="M50.606 98.4199C50.606 98.4199 82.2347 118.341 82.2347 124.657L56.9317 145.549L48.173 135.832L49.1462 150.408L21.8968 155.752C21.8968 155.752 12.1649 118.826 12.6515 117.369C13.1381 115.911 14.5979 94.533 14.5979 94.533L50.606 98.4199Z" fill="#2F2E41"/>
<path d="M72.9894 173.729L87.1007 176.645L84.5935 186.937C83.3595 192.002 83.219 197.272 84.1811 202.396V202.396C84.1811 202.396 69.5833 206.283 69.5833 204.339C69.5833 202.396 72.9894 194.622 72.0162 189.277C71.043 183.933 72.9894 173.729 72.9894 173.729Z" fill="#6C63FF"/>
<path d="M64.7695 210.771C65.2561 208.828 69.299 200.016 69.4672 201.507C69.6355 202.997 77.421 205.427 80.3406 202.512C80.3406 202.512 84.2334 199.111 85.6931 202.512C87.1529 205.913 90.0725 211.743 90.0725 211.743C90.0725 211.743 103.211 218.059 101.264 221.46C100.871 222.148 99.7799 222.438 98.2908 222.464C98.3258 222.554 98.344 222.649 98.3446 222.746V223.09C98.3446 223.302 98.2603 223.506 98.1101 223.656C97.9599 223.806 97.7562 223.89 97.5439 223.89H97.199C96.9867 223.89 96.783 223.806 96.6328 223.656C96.4826 223.506 96.3983 223.302 96.3983 223.09V222.746C96.399 222.622 96.429 222.5 96.4857 222.389C96.0878 222.355 95.6749 222.309 95.2504 222.253C95.3628 222.393 95.4244 222.567 95.4251 222.746V223.09C95.4251 223.302 95.3407 223.506 95.1905 223.656C95.0403 223.806 94.8367 223.89 94.6243 223.89H94.2795C94.0671 223.89 93.8634 223.806 93.7132 223.656C93.5631 223.506 93.4787 223.302 93.4787 223.09V222.746C93.4791 222.603 93.5177 222.464 93.5905 222.341C93.6634 222.219 93.7678 222.118 93.8928 222.05C92.7728 221.863 91.6039 221.626 90.4416 221.362C90.5178 221.486 90.5585 221.629 90.5591 221.774V222.118C90.5591 222.33 90.4747 222.534 90.3246 222.684C90.1744 222.834 89.9707 222.918 89.7583 222.918H89.4135C89.2011 222.918 88.9975 222.834 88.8473 222.684C88.6971 222.534 88.6127 222.33 88.6127 222.118V221.774C88.6129 221.62 88.6579 221.468 88.7424 221.339C88.8269 221.209 88.9472 221.107 89.0888 221.044C88.217 220.832 87.3626 220.611 86.5493 220.392C86.6252 220.515 86.6657 220.657 86.6663 220.802V221.147C86.6663 221.359 86.582 221.562 86.4318 221.712C86.2816 221.862 86.0779 221.946 85.8656 221.946H85.5207C85.3084 221.946 85.1047 221.862 84.9545 221.712C84.8043 221.562 84.72 221.359 84.72 221.147V220.802C84.7204 220.632 84.7752 220.467 84.8765 220.33C84.9779 220.194 85.1203 220.093 85.2831 220.043C82.4254 219.239 80.3406 218.545 80.3406 218.545C80.3406 218.545 77.9195 217.666 74.988 216.477V216.774C74.988 216.986 74.9037 217.189 74.7535 217.339C74.6033 217.489 74.3996 217.573 74.1873 217.573H73.8424C73.6301 217.573 73.4264 217.489 73.2762 217.339C73.126 217.189 73.0417 216.986 73.0417 216.774V216.43C73.042 216.308 73.07 216.189 73.1237 216.08C73.1774 215.971 73.2553 215.876 73.3514 215.802C72.7628 215.555 72.1691 215.301 71.5819 215.043V215.316C71.5819 215.528 71.4975 215.732 71.3473 215.882C71.1972 216.032 70.9935 216.116 70.7811 216.116H70.4363C70.2239 216.116 70.0202 216.032 69.87 215.882C69.7198 215.732 69.6355 215.528 69.6355 215.316V214.972C69.6355 214.843 69.6667 214.717 69.7264 214.603C69.7861 214.489 69.8725 214.391 69.9782 214.317C69.3432 214.022 68.7318 213.726 68.1679 213.437C68.1704 213.463 68.1757 213.488 68.1757 213.514V213.859C68.1757 214.071 68.0913 214.274 67.9412 214.424C67.791 214.574 67.5873 214.658 67.3749 214.658H67.0301C66.8177 214.658 66.614 214.574 66.4639 214.424C66.3137 214.274 66.2293 214.071 66.2293 213.859V213.514C66.2293 213.33 66.2931 213.151 66.4099 213.009C66.5267 212.866 66.6893 212.768 66.8701 212.731C65.5096 211.942 64.6516 211.242 64.7695 210.771Z" fill="#2F2E41"/>
<path d="M26.5195 205.797L41.9349 204.825C41.9349 204.825 41.0006 220.859 42.8691 226.203C44.7377 231.548 43.8034 233.491 43.8034 233.491L30.2566 234.463L26.5195 205.797Z" fill="#6C63FF"/>
<path d="M26.3299 241.233C26.3999 239.231 28.5139 229.772 28.9897 231.194C29.4655 232.617 37.5873 233.372 39.8339 229.913C39.8339 229.913 42.9309 225.776 45.0688 228.799C47.2068 231.821 51.2797 236.916 51.2797 236.916C51.2797 236.916 65.448 240.358 64.2546 244.089C64.0132 244.844 63.007 245.355 61.5561 245.69C61.609 245.771 61.6468 245.86 61.6676 245.954L61.7395 246.291C61.7837 246.499 61.7437 246.715 61.6281 246.893C61.5126 247.071 61.331 247.196 61.1233 247.24L60.786 247.312C60.5783 247.356 60.3615 247.316 60.1834 247.201C60.0052 247.085 59.8802 246.904 59.8359 246.696L59.764 246.36C59.7388 246.238 59.7427 246.113 59.7751 245.993C59.3786 246.042 58.9652 246.083 58.5384 246.117C58.6776 246.23 58.7741 246.387 58.8122 246.562L58.8841 246.899C58.9284 247.106 58.8883 247.323 58.7727 247.501C58.6572 247.679 58.4756 247.804 58.2679 247.848L57.9306 247.92C57.7229 247.964 57.5061 247.924 57.328 247.808C57.1498 247.693 57.0248 247.512 56.9805 247.304L56.9086 246.968C56.8792 246.828 56.8878 246.683 56.9335 246.549C56.9792 246.414 57.0603 246.293 57.1683 246.2C56.0339 246.251 54.8411 246.262 53.6494 246.247C53.7498 246.352 53.8193 246.483 53.8503 246.625L53.9222 246.962C53.9664 247.169 53.9264 247.386 53.8109 247.564C53.6953 247.741 53.5137 247.866 53.306 247.91L52.9688 247.982C52.761 248.026 52.5442 247.986 52.366 247.871C52.1878 247.756 52.0629 247.574 52.0186 247.367L51.9467 247.03C51.9145 246.879 51.927 246.722 51.9826 246.577C52.0382 246.433 52.1345 246.308 52.2599 246.217C51.363 246.191 50.4811 246.153 49.6399 246.108C49.74 246.213 49.8093 246.343 49.8402 246.485L49.9121 246.822C49.9563 247.029 49.9163 247.246 49.8007 247.424C49.6852 247.601 49.5036 247.726 49.2959 247.771L48.9586 247.842C48.7509 247.887 48.5341 247.847 48.356 247.731C48.1778 247.616 48.0528 247.434 48.0085 247.227L47.9366 246.89C47.9015 246.724 47.9206 246.551 47.9911 246.396C48.0617 246.241 48.18 246.113 48.3287 246.03C45.366 245.839 43.1821 245.594 43.1821 245.594C43.1821 245.594 40.6306 245.238 37.5154 244.686L37.5773 244.976C37.6216 245.184 37.5816 245.4 37.466 245.578C37.3504 245.756 37.1688 245.881 36.9611 245.925L36.6239 245.997C36.4162 246.041 36.1994 246.001 36.0212 245.886C35.843 245.77 35.718 245.589 35.6737 245.382L35.6018 245.045C35.5768 244.926 35.5793 244.804 35.6091 244.686C35.6389 244.569 35.6952 244.459 35.7738 244.367C35.1465 244.248 34.5129 244.123 33.8846 243.993L33.9417 244.26C33.9859 244.467 33.9459 244.684 33.8303 244.862C33.7148 245.04 33.5332 245.165 33.3255 245.209L32.9883 245.281C32.7805 245.325 32.5637 245.285 32.3855 245.169C32.2073 245.054 32.0824 244.873 32.0381 244.665L31.9662 244.328C31.9394 244.203 31.9434 244.072 31.978 243.948C32.0126 243.825 32.0766 243.711 32.1647 243.617C31.4819 243.46 30.8222 243.298 30.2102 243.133C30.2181 243.157 30.2285 243.181 30.2341 243.207L30.306 243.544C30.3503 243.751 30.3102 243.967 30.1947 244.145C30.0791 244.323 29.8975 244.448 29.6898 244.492L29.3525 244.564C29.1448 244.608 28.928 244.568 28.7498 244.453C28.5717 244.338 28.4467 244.156 28.4024 243.949L28.3305 243.612C28.292 243.432 28.3171 243.244 28.4015 243.08C28.4859 242.916 28.6244 242.786 28.7936 242.712C27.2981 242.224 26.3129 241.718 26.3299 241.233Z" fill="#2F2E41"/>
<path d="M50.606 35.2571C42.8125 35.2571 36.4947 28.9487 36.4947 21.1669C36.4947 13.3852 42.8125 7.07678 50.606 7.07678C58.3994 7.07678 64.7173 13.3852 64.7173 21.1669C64.7173 28.9487 58.3994 35.2571 50.606 35.2571Z" fill="#FFB8B8"/>
<path d="M37.9545 19.7094C37.9545 19.7094 30.169 29.4267 26.2762 28.9408L43.3071 42.0593C43.3071 42.0593 45.2535 33.7995 47.6865 32.8278C50.1194 31.856 37.9545 19.7094 37.9545 19.7094Z" fill="#FFB8B8"/>
<path d="M7.5423 91.8607C7.5423 91.8607 7.54348 38.247 16.5507 33.6286C25.5527 29.0128 31.5075 26.3784 31.5075 26.3784C31.64 28.1376 32.1407 29.8495 32.9772 31.4034C33.8138 32.9573 34.9675 34.3187 36.3638 35.3996C39.3486 37.7005 42.3223 39.6084 43.9835 39.6145L44.037 39.387L44.2396 38.8094L49.1463 46.4321C49.1463 46.4321 53.5256 47.4038 54.9854 50.319C55.7752 51.8962 52.051 67.7729 54.2555 82.1434C56.1259 94.3356 64.0074 105.342 64.2307 106.68C64.6083 108.942 55.029 103.015 50.7153 100.245C50.6515 100.316 50.606 100.363 50.606 100.363C50.606 100.363 53.039 101.335 48.1731 99.8775C45.416 99.0516 41.5665 99.0059 38.7467 99.1211C38.7501 99.9653 38.7301 100.636 38.6844 101.092C38.1978 105.951 13.868 112.753 10.4619 111.295C7.0557 109.838 7.5423 91.8607 7.5423 91.8607Z" fill="#2F2E41"/>
<path d="M24.5731 110.324C24.5731 110.324 39.171 123.442 29.4391 125.871C19.7071 128.301 15.8144 112.267 15.8144 112.267L24.5731 110.324Z" fill="#FFB8B8"/>
<path d="M41.604 144.334C41.604 144.334 34.7917 138.018 30.8989 141.419C27.0061 144.82 24.5732 147.25 24.5732 147.25C24.5732 147.25 35.7649 140.448 41.604 144.334Z" fill="#6C63FF"/>
<path d="M39.8346 219.91C39.8346 219.91 35.9949 216.35 33.8008 218.267C31.6067 220.184 30.2354 221.554 30.2354 221.554C30.2354 221.554 36.5434 217.72 39.8346 219.91Z" fill="#2F2E41"/>
<path d="M82.8512 186.796C82.8512 186.796 80.2154 182.274 77.5575 183.471C74.8997 184.667 73.1886 185.579 73.1886 185.579C73.1886 185.579 80.3411 183.744 82.8512 186.796Z" fill="#2F2E41"/>
<path d="M11.2191 40.295C16.0426 30.6136 30.7191 35.8938 28.3343 46.4416C28.2988 46.5988 28.2615 46.7576 28.2226 46.9179C25.7091 56.9026 21.6015 66.4178 16.0577 75.0983L21.4103 98.9058L27.2494 111.052L15.0845 113.968L4.64051e-05 77.5276C4.64051e-05 77.5276 4.16079 54.4619 11.2191 40.295Z" fill="#2F2E41"/>
<path opacity="0.2" d="M18.2474 75.827L27.4927 110.809L19.7071 94.29L18.2474 75.827Z" fill="black"/>
<path d="M41.7437 4.74272C41.7437 4.74272 49.544 -3.45702 57.3954 1.70686C65.2467 6.87075 68.9712 11.887 68.2014 15.3797C67.4316 18.8724 65.1533 23.7305 65.1533 23.7305C65.1533 23.7305 66.5692 16.4947 60.0681 15.9592C53.567 15.4238 44.5852 11.1279 44.5852 11.1279L38.5097 24.083C38.5097 24.083 37.6507 21.0809 35.2695 21.9419C32.8882 22.803 34.734 5.70314 41.7437 4.74272Z" fill="#2F2E41"/>
<path d="M91.7234 190.006C91.7239 191.237 91.8265 192.465 92.03 193.679V193.684C92.5888 196.949 93.8831 200.045 95.8153 202.738C97.7475 205.43 100.267 207.65 103.184 209.228C106.1 210.806 109.338 211.702 112.652 211.849C115.967 211.995 119.271 211.388 122.316 210.072H122.321C123.222 209.684 124.095 209.235 124.934 208.727C127.534 207.159 129.78 205.069 131.529 202.589C133.278 200.109 134.492 197.293 135.094 194.321C135.376 192.9 135.518 191.455 135.517 190.006C135.517 189.345 135.488 188.689 135.43 188.043V188.038C134.925 182.459 132.294 177.286 128.081 173.587C123.868 169.888 118.393 167.945 112.787 168.159C107.18 168.372 101.87 170.727 97.9517 174.736C94.0332 178.745 91.8056 184.103 91.7283 189.705V189.71C91.7234 189.812 91.7234 189.904 91.7234 190.006Z" fill="#6C63FF"/>
<path d="M108.23 182.703H118.037L122.941 174.225L119.615 168.468L119.42 168.416C115.21 167.293 110.763 167.417 106.622 168.774L106.445 168.832L103.326 174.225L108.23 182.703ZM117.475 181.732H108.792L104.45 174.225L107.102 169.639C110.95 168.421 115.063 168.305 118.974 169.303L121.817 174.225L117.475 181.732Z" fill="white"/>
<path d="M108.717 200.195H118.524L123.427 191.715L118.524 183.234H108.717L103.813 191.715L108.717 200.195ZM117.962 199.223H109.278L104.937 191.715L109.278 184.206H117.962L122.304 191.715L117.962 199.223Z" fill="white"/>
<path d="M113.62 212.356C116.679 212.362 119.705 211.736 122.51 210.518L123.01 210.301L118.037 201.696H108.23L103.467 209.934L103.94 210.161C106.959 211.613 110.269 212.364 113.62 212.356V212.356ZM121.618 209.837C118.943 210.912 116.078 211.437 113.194 211.38C110.311 211.323 107.469 210.686 104.838 209.506L108.792 202.668H117.475L121.618 209.837Z" fill="white"/>
<path d="M92.1724 191.449H101.979L106.883 182.97L101.98 174.487H97.5141L97.3701 174.639C93.4975 178.707 91.3083 184.086 91.2415 189.699V189.839L92.1724 191.449ZM101.418 190.477H92.7341L92.2166 189.583C92.3106 184.332 94.347 179.301 97.9336 175.459H101.418L105.759 182.97L101.418 190.477Z" fill="white"/>
<path d="M102.115 209.189L106.883 200.948L101.98 192.464H92.1729L91.5433 193.548L91.5502 193.765C92.0818 196.859 93.2589 199.807 95.0052 202.418C96.7515 205.029 99.0279 207.243 101.687 208.919L102.115 209.189ZM105.759 200.948L101.782 207.822C99.3717 206.223 97.3106 204.154 95.7222 201.74C94.1338 199.325 93.051 196.614 92.5388 193.771L92.7337 193.436H101.418L105.759 200.948Z" fill="white"/>
<path d="M124.76 209.398L125.185 209.142C127.842 207.539 130.137 205.402 131.925 202.867C133.713 200.332 134.954 197.454 135.571 194.416L135.607 194.236L134.581 192.464H124.774L119.871 200.948L124.76 209.398ZM134.58 194.404C133.989 197.193 132.846 199.837 131.219 202.18C129.592 204.523 127.513 206.519 125.104 208.05L120.994 200.948L125.336 193.436H134.02L134.58 194.404Z" fill="white"/>
<path d="M124.774 190.477H134.581L135.916 188.174V188.043C135.436 182.537 132.923 177.406 128.866 173.645L128.726 173.515H124.774L119.871 181.999L124.774 190.477ZM134.02 189.505H125.336L120.995 181.999L125.336 174.487H128.342C132.096 178.025 134.437 182.802 134.931 187.933L134.02 189.505Z" fill="white"/>
<path d="M79.8017 124.171C79.8017 124.171 94.3996 134.374 93.4264 143.606C92.4532 152.837 86.1275 178.102 86.1275 178.102L72.9894 176.159C72.9894 176.159 71.5296 156.724 76.3956 149.436L53.039 136.318L79.8017 124.171Z" fill="#FFB8B8"/>
<path d="M50.606 98.4199C50.606 98.4199 82.2347 118.341 82.2347 124.657L56.9317 145.549L48.173 135.832L49.1462 150.408L21.8968 155.752C21.8968 155.752 12.1649 118.826 12.6515 117.369C13.1381 115.911 14.5979 94.533 14.5979 94.533L50.606 98.4199Z" fill="#2F2E41"/>
<path d="M72.9894 173.729L87.1007 176.645L84.5935 186.937C83.3595 192.002 83.219 197.272 84.1811 202.396V202.396C84.1811 202.396 69.5833 206.283 69.5833 204.339C69.5833 202.396 72.9894 194.622 72.0162 189.277C71.043 183.933 72.9894 173.729 72.9894 173.729Z" fill="#6C63FF"/>
<path d="M64.7695 210.771C65.2561 208.828 69.299 200.016 69.4672 201.507C69.6355 202.997 77.421 205.427 80.3406 202.512C80.3406 202.512 84.2334 199.111 85.6931 202.512C87.1529 205.913 90.0725 211.743 90.0725 211.743C90.0725 211.743 103.211 218.059 101.264 221.46C100.871 222.148 99.7799 222.438 98.2908 222.464C98.3258 222.554 98.344 222.649 98.3446 222.746V223.09C98.3446 223.302 98.2603 223.506 98.1101 223.656C97.9599 223.806 97.7562 223.89 97.5439 223.89H97.199C96.9867 223.89 96.783 223.806 96.6328 223.656C96.4826 223.506 96.3983 223.302 96.3983 223.09V222.746C96.399 222.622 96.429 222.5 96.4857 222.389C96.0878 222.355 95.6749 222.309 95.2504 222.253C95.3628 222.393 95.4244 222.567 95.4251 222.746V223.09C95.4251 223.302 95.3407 223.506 95.1905 223.656C95.0403 223.806 94.8367 223.89 94.6243 223.89H94.2795C94.0671 223.89 93.8634 223.806 93.7132 223.656C93.5631 223.506 93.4787 223.302 93.4787 223.09V222.746C93.4791 222.603 93.5177 222.464 93.5905 222.341C93.6634 222.219 93.7678 222.118 93.8928 222.05C92.7728 221.863 91.6039 221.626 90.4416 221.362C90.5178 221.486 90.5585 221.629 90.5591 221.774V222.118C90.5591 222.33 90.4747 222.534 90.3246 222.684C90.1744 222.834 89.9707 222.918 89.7583 222.918H89.4135C89.2011 222.918 88.9975 222.834 88.8473 222.684C88.6971 222.534 88.6127 222.33 88.6127 222.118V221.774C88.6129 221.62 88.6579 221.468 88.7424 221.339C88.8269 221.209 88.9472 221.107 89.0888 221.044C88.217 220.832 87.3626 220.611 86.5493 220.392C86.6252 220.515 86.6657 220.657 86.6663 220.802V221.147C86.6663 221.359 86.582 221.562 86.4318 221.712C86.2816 221.862 86.0779 221.946 85.8656 221.946H85.5207C85.3084 221.946 85.1047 221.862 84.9545 221.712C84.8043 221.562 84.72 221.359 84.72 221.147V220.802C84.7204 220.632 84.7752 220.467 84.8765 220.33C84.9779 220.194 85.1203 220.093 85.2831 220.043C82.4254 219.239 80.3406 218.545 80.3406 218.545C80.3406 218.545 77.9195 217.666 74.988 216.477V216.774C74.988 216.986 74.9037 217.189 74.7535 217.339C74.6033 217.489 74.3996 217.573 74.1873 217.573H73.8424C73.6301 217.573 73.4264 217.489 73.2762 217.339C73.126 217.189 73.0417 216.986 73.0417 216.774V216.43C73.042 216.308 73.07 216.189 73.1237 216.08C73.1774 215.971 73.2553 215.876 73.3514 215.802C72.7628 215.555 72.1691 215.301 71.5819 215.043V215.316C71.5819 215.528 71.4975 215.732 71.3473 215.882C71.1972 216.032 70.9935 216.116 70.7811 216.116H70.4363C70.2239 216.116 70.0202 216.032 69.87 215.882C69.7198 215.732 69.6355 215.528 69.6355 215.316V214.972C69.6355 214.843 69.6667 214.717 69.7264 214.603C69.7861 214.489 69.8725 214.391 69.9782 214.317C69.3432 214.022 68.7318 213.726 68.1679 213.437C68.1704 213.463 68.1757 213.488 68.1757 213.514V213.859C68.1757 214.071 68.0913 214.274 67.9412 214.424C67.791 214.574 67.5873 214.658 67.3749 214.658H67.0301C66.8177 214.658 66.614 214.574 66.4639 214.424C66.3137 214.274 66.2293 214.071 66.2293 213.859V213.514C66.2293 213.33 66.2931 213.151 66.4099 213.009C66.5267 212.866 66.6893 212.768 66.8701 212.731C65.5096 211.942 64.6516 211.242 64.7695 210.771Z" fill="#2F2E41"/>
<path d="M26.5195 205.797L41.9349 204.825C41.9349 204.825 41.0006 220.859 42.8691 226.203C44.7377 231.548 43.8034 233.491 43.8034 233.491L30.2566 234.463L26.5195 205.797Z" fill="#6C63FF"/>
<path d="M26.3299 241.233C26.3999 239.231 28.5139 229.772 28.9897 231.194C29.4655 232.617 37.5873 233.372 39.8339 229.913C39.8339 229.913 42.9309 225.776 45.0688 228.799C47.2068 231.821 51.2797 236.916 51.2797 236.916C51.2797 236.916 65.448 240.358 64.2546 244.089C64.0132 244.844 63.007 245.355 61.5561 245.69C61.609 245.771 61.6468 245.86 61.6676 245.954L61.7395 246.291C61.7837 246.499 61.7437 246.715 61.6281 246.893C61.5126 247.071 61.331 247.196 61.1233 247.24L60.786 247.312C60.5783 247.356 60.3615 247.316 60.1834 247.201C60.0052 247.085 59.8802 246.904 59.8359 246.696L59.764 246.36C59.7388 246.238 59.7427 246.113 59.7751 245.993C59.3786 246.042 58.9652 246.083 58.5384 246.117C58.6776 246.23 58.7741 246.387 58.8122 246.562L58.8841 246.899C58.9284 247.106 58.8883 247.323 58.7727 247.501C58.6572 247.679 58.4756 247.804 58.2679 247.848L57.9306 247.92C57.7229 247.964 57.5061 247.924 57.328 247.808C57.1498 247.693 57.0248 247.512 56.9805 247.304L56.9086 246.968C56.8792 246.828 56.8878 246.683 56.9335 246.549C56.9792 246.414 57.0603 246.293 57.1683 246.2C56.0339 246.251 54.8411 246.262 53.6494 246.247C53.7498 246.352 53.8193 246.483 53.8503 246.625L53.9222 246.962C53.9664 247.169 53.9264 247.386 53.8109 247.564C53.6953 247.741 53.5137 247.866 53.306 247.91L52.9688 247.982C52.761 248.026 52.5442 247.986 52.366 247.871C52.1878 247.756 52.0629 247.574 52.0186 247.367L51.9467 247.03C51.9145 246.879 51.927 246.722 51.9826 246.577C52.0382 246.433 52.1345 246.308 52.2599 246.217C51.363 246.191 50.4811 246.153 49.6399 246.108C49.74 246.213 49.8093 246.343 49.8402 246.485L49.9121 246.822C49.9563 247.029 49.9163 247.246 49.8007 247.424C49.6852 247.601 49.5036 247.726 49.2959 247.771L48.9586 247.842C48.7509 247.887 48.5341 247.847 48.356 247.731C48.1778 247.616 48.0528 247.434 48.0085 247.227L47.9366 246.89C47.9015 246.724 47.9206 246.551 47.9911 246.396C48.0617 246.241 48.18 246.113 48.3287 246.03C45.366 245.839 43.1821 245.594 43.1821 245.594C43.1821 245.594 40.6306 245.238 37.5154 244.686L37.5773 244.976C37.6216 245.184 37.5816 245.4 37.466 245.578C37.3504 245.756 37.1688 245.881 36.9611 245.925L36.6239 245.997C36.4162 246.041 36.1994 246.001 36.0212 245.886C35.843 245.77 35.718 245.589 35.6737 245.382L35.6018 245.045C35.5768 244.926 35.5793 244.804 35.6091 244.686C35.6389 244.569 35.6952 244.459 35.7738 244.367C35.1465 244.248 34.5129 244.123 33.8846 243.993L33.9417 244.26C33.9859 244.467 33.9459 244.684 33.8303 244.862C33.7148 245.04 33.5332 245.165 33.3255 245.209L32.9883 245.281C32.7805 245.325 32.5637 245.285 32.3855 245.169C32.2073 245.054 32.0824 244.873 32.0381 244.665L31.9662 244.328C31.9394 244.203 31.9434 244.072 31.978 243.948C32.0126 243.825 32.0766 243.711 32.1647 243.617C31.4819 243.46 30.8222 243.298 30.2102 243.133C30.2181 243.157 30.2285 243.181 30.2341 243.207L30.306 243.544C30.3503 243.751 30.3102 243.967 30.1947 244.145C30.0791 244.323 29.8975 244.448 29.6898 244.492L29.3525 244.564C29.1448 244.608 28.928 244.568 28.7498 244.453C28.5717 244.338 28.4467 244.156 28.4024 243.949L28.3305 243.612C28.292 243.432 28.3171 243.244 28.4015 243.08C28.4859 242.916 28.6244 242.786 28.7936 242.712C27.2981 242.224 26.3129 241.718 26.3299 241.233Z" fill="#2F2E41"/>
<path d="M50.606 35.2571C42.8125 35.2571 36.4947 28.9487 36.4947 21.1669C36.4947 13.3852 42.8125 7.07678 50.606 7.07678C58.3994 7.07678 64.7173 13.3852 64.7173 21.1669C64.7173 28.9487 58.3994 35.2571 50.606 35.2571Z" fill="#FFB8B8"/>
<path d="M37.9545 19.7094C37.9545 19.7094 30.169 29.4267 26.2762 28.9408L43.3071 42.0593C43.3071 42.0593 45.2535 33.7995 47.6865 32.8278C50.1194 31.856 37.9545 19.7094 37.9545 19.7094Z" fill="#FFB8B8"/>
<path d="M7.5423 91.8607C7.5423 91.8607 7.54348 38.247 16.5507 33.6286C25.5527 29.0128 31.5075 26.3784 31.5075 26.3784C31.64 28.1376 32.1407 29.8495 32.9772 31.4034C33.8138 32.9573 34.9675 34.3187 36.3638 35.3996C39.3486 37.7005 42.3223 39.6084 43.9835 39.6145L44.037 39.387L44.2396 38.8094L49.1463 46.4321C49.1463 46.4321 53.5256 47.4038 54.9854 50.319C55.7752 51.8962 52.051 67.7729 54.2555 82.1434C56.1259 94.3356 64.0074 105.342 64.2307 106.68C64.6083 108.942 55.029 103.015 50.7153 100.245C50.6515 100.316 50.606 100.363 50.606 100.363C50.606 100.363 53.039 101.335 48.1731 99.8775C45.416 99.0516 41.5665 99.0059 38.7467 99.1211C38.7501 99.9653 38.7301 100.636 38.6844 101.092C38.1978 105.951 13.868 112.753 10.4619 111.295C7.0557 109.838 7.5423 91.8607 7.5423 91.8607Z" fill="#2F2E41"/>
<path d="M24.5731 110.324C24.5731 110.324 39.171 123.442 29.4391 125.871C19.7071 128.301 15.8144 112.267 15.8144 112.267L24.5731 110.324Z" fill="#FFB8B8"/>
<path d="M41.604 144.334C41.604 144.334 34.7917 138.018 30.8989 141.419C27.0061 144.82 24.5732 147.25 24.5732 147.25C24.5732 147.25 35.7649 140.448 41.604 144.334Z" fill="#6C63FF"/>
<path d="M39.8346 219.91C39.8346 219.91 35.9949 216.35 33.8008 218.267C31.6067 220.184 30.2354 221.554 30.2354 221.554C30.2354 221.554 36.5434 217.72 39.8346 219.91Z" fill="#2F2E41"/>
<path d="M82.8512 186.796C82.8512 186.796 80.2154 182.274 77.5575 183.471C74.8997 184.667 73.1886 185.579 73.1886 185.579C73.1886 185.579 80.3411 183.744 82.8512 186.796Z" fill="#2F2E41"/>
<path d="M11.2191 40.295C16.0426 30.6136 30.7191 35.8938 28.3343 46.4416C28.2988 46.5988 28.2615 46.7576 28.2226 46.9179C25.7091 56.9026 21.6015 66.4178 16.0577 75.0983L21.4103 98.9058L27.2494 111.052L15.0845 113.968L4.64051e-05 77.5276C4.64051e-05 77.5276 4.16079 54.4619 11.2191 40.295Z" fill="#2F2E41"/>
<path opacity="0.2" d="M18.2474 75.827L27.4927 110.809L19.7071 94.29L18.2474 75.827Z" fill="black"/>
<path d="M41.7437 4.74272C41.7437 4.74272 49.544 -3.45702 57.3954 1.70686C65.2467 6.87075 68.9712 11.887 68.2014 15.3797C67.4316 18.8724 65.1533 23.7305 65.1533 23.7305C65.1533 23.7305 66.5692 16.4947 60.0681 15.9592C53.567 15.4238 44.5852 11.1279 44.5852 11.1279L38.5097 24.083C38.5097 24.083 37.6507 21.0809 35.2695 21.9419C32.8882 22.803 34.734 5.70314 41.7437 4.74272Z" fill="#2F2E41"/>
<path d="M91.7234 190.006C91.7239 191.237 91.8265 192.465 92.03 193.679V193.684C92.5888 196.949 93.8831 200.045 95.8153 202.738C97.7475 205.43 100.267 207.65 103.184 209.228C106.1 210.806 109.338 211.702 112.652 211.849C115.967 211.995 119.271 211.388 122.316 210.072H122.321C123.222 209.684 124.095 209.235 124.934 208.727C127.534 207.159 129.78 205.069 131.529 202.589C133.278 200.109 134.492 197.293 135.094 194.321C135.376 192.9 135.518 191.455 135.517 190.006C135.517 189.345 135.488 188.689 135.43 188.043V188.038C134.925 182.459 132.294 177.286 128.081 173.587C123.868 169.888 118.393 167.945 112.787 168.159C107.18 168.372 101.87 170.727 97.9517 174.736C94.0332 178.745 91.8056 184.103 91.7283 189.705V189.71C91.7234 189.812 91.7234 189.904 91.7234 190.006Z" fill="#6C63FF"/>
<path d="M108.23 182.703H118.037L122.941 174.225L119.615 168.468L119.42 168.416C115.21 167.293 110.763 167.417 106.622 168.774L106.445 168.832L103.326 174.225L108.23 182.703ZM117.475 181.732H108.792L104.45 174.225L107.102 169.639C110.95 168.421 115.063 168.305 118.974 169.303L121.817 174.225L117.475 181.732Z" fill="white"/>
<path d="M108.717 200.195H118.524L123.427 191.715L118.524 183.234H108.717L103.813 191.715L108.717 200.195ZM117.962 199.223H109.278L104.937 191.715L109.278 184.206H117.962L122.304 191.715L117.962 199.223Z" fill="white"/>
<path d="M113.62 212.356C116.679 212.362 119.705 211.736 122.51 210.518L123.01 210.301L118.037 201.696H108.23L103.467 209.934L103.94 210.161C106.959 211.613 110.269 212.364 113.62 212.356V212.356ZM121.618 209.837C118.943 210.912 116.078 211.437 113.194 211.38C110.311 211.323 107.469 210.686 104.838 209.506L108.792 202.668H117.475L121.618 209.837Z" fill="white"/>
<path d="M92.1724 191.449H101.979L106.883 182.97L101.98 174.487H97.5141L97.3701 174.639C93.4975 178.707 91.3083 184.086 91.2415 189.699V189.839L92.1724 191.449ZM101.418 190.477H92.7341L92.2166 189.583C92.3106 184.332 94.347 179.301 97.9336 175.459H101.418L105.759 182.97L101.418 190.477Z" fill="white"/>
<path d="M102.115 209.189L106.883 200.948L101.98 192.464H92.1729L91.5433 193.548L91.5502 193.765C92.0818 196.859 93.2589 199.807 95.0052 202.418C96.7515 205.029 99.0279 207.243 101.687 208.919L102.115 209.189ZM105.759 200.948L101.782 207.822C99.3717 206.223 97.3106 204.154 95.7222 201.74C94.1338 199.325 93.051 196.614 92.5388 193.771L92.7337 193.436H101.418L105.759 200.948Z" fill="white"/>
<path d="M124.76 209.398L125.185 209.142C127.842 207.539 130.137 205.402 131.925 202.867C133.713 200.332 134.954 197.454 135.571 194.416L135.607 194.236L134.581 192.464H124.774L119.871 200.948L124.76 209.398ZM134.58 194.404C133.989 197.193 132.846 199.837 131.219 202.18C129.592 204.523 127.513 206.519 125.104 208.05L120.994 200.948L125.336 193.436H134.02L134.58 194.404Z" fill="white"/>
<path d="M124.774 190.477H134.581L135.916 188.174V188.043C135.436 182.537 132.923 177.406 128.866 173.645L128.726 173.515H124.774L119.871 181.999L124.774 190.477ZM134.02 189.505H125.336L120.995 181.999L125.336 174.487H128.342C132.096 178.025 134.437 182.802 134.931 187.933L134.02 189.505Z" fill="white"/>
<path d="M281.95 235.299C276.804 236.067 272.022 238.408 268.264 242.001L296.981 237.685C292.339 235.358 287.087 234.525 281.95 235.299V235.299Z" fill="#E6E6E6"/>
<path d="M188.294 122.378C188.294 122.378 170.371 130.401 178.875 135.696C187.379 140.991 196.022 126.912 196.022 126.912L188.294 122.378Z" fill="#FFB8B8"/>
<path d="M233.135 54.2647C233.135 54.2647 218.157 47.9475 217.134 64.4218C216.11 80.9285 214.397 95.0021 214.397 95.0021L198.344 113.422L187.422 121.345L196.726 129.683L227.354 104.759C227.354 104.759 251.438 60.2736 233.135 54.2647Z" fill="#2F2E41"/>
<path d="M245.884 146.608C245.884 146.608 247.594 164.531 251.083 171.376C254.572 178.222 261.021 204.766 261.021 204.766L274.495 202.742C274.495 202.742 277.212 178.258 267.924 168.845C267.924 168.845 263.424 155.273 269.15 147.534L245.884 146.608Z" fill="#FFB8B8"/>
<path d="M275.132 200.435L259.744 201.765C259.744 201.765 263.05 217.482 261.997 223.044C260.943 228.607 262.156 230.39 262.156 230.39L275.697 229.338L275.132 200.435Z" fill="#6C63FF"/>
<path d="M228.997 39.325C235.664 43.3599 244.336 41.2339 248.365 34.5763C252.394 27.9186 250.255 19.2506 243.587 15.2156C236.919 11.1806 228.248 13.3067 224.219 19.9643C220.19 26.6219 222.329 35.29 228.997 39.325Z" fill="#FFB8B8"/>
<path d="M247.87 32.5734C247.87 32.5734 249.5 44.9179 253.082 46.5176L231.72 48.9234C231.72 48.9234 234.331 40.8491 232.752 38.7581C231.174 36.6671 247.87 32.5734 247.87 32.5734Z" fill="#FFB8B8"/>
<path d="M264.063 216.371C264.063 216.371 267.331 212.279 269.785 213.849C272.24 215.419 273.799 216.569 273.799 216.569C273.799 216.569 266.992 213.715 264.063 216.371Z" fill="#2F2E41"/>
<path opacity="0.2" d="M256.669 85.0366L247.423 120.019L255.209 103.5L256.669 85.0366Z" fill="black"/>
<path d="M252.377 17.8071C252.377 17.8071 249.949 6.75338 240.559 7.10633C231.168 7.45929 225.384 9.82252 224.235 13.2092C223.085 16.5959 222.519 21.9318 222.519 21.9318C222.519 21.9318 225.054 15.0082 230.893 17.916C236.732 20.8237 246.641 21.7987 246.641 21.7987L245.131 36.0278C245.131 36.0278 247.42 33.9041 249.012 35.8737C250.603 37.8432 257.877 22.258 252.377 17.8071Z" fill="#2F2E41"/>
<path d="M220.493 110.162C220.493 110.162 202.637 143.001 205.725 148.511L238.011 154.369L240.902 141.61L247.178 154.802L273.563 146.145C273.563 146.145 264.003 109.174 262.866 108.14C261.729 107.106 250.006 89.1696 250.006 89.1696L220.493 110.162Z" fill="#2F2E41"/>
<path d="M275.132 200.435L259.744 201.765C259.744 201.765 263.05 217.482 261.997 223.044C260.943 228.607 262.156 230.39 262.156 230.39L275.697 229.338L275.132 200.435Z" fill="#BE7E1F"/>
<path d="M228.997 39.325C235.664 43.3599 244.336 41.2339 248.365 34.5763C252.394 27.9186 250.255 19.2506 243.587 15.2156C236.919 11.1806 228.248 13.3067 224.219 19.9643C220.19 26.6219 222.329 35.29 228.997 39.325Z" fill="#FFB8B8"/>
<path d="M247.87 32.5734C247.87 32.5734 249.5 44.9179 253.082 46.5176L231.72 48.9234C231.72 48.9234 234.331 40.8491 232.752 38.7581C231.174 36.6671 247.87 32.5734 247.87 32.5734Z" fill="#FFB8B8"/>
<path d="M265.699 101.585C265.699 101.585 273.507 53.9573 264.5 49.3389C255.498 44.7232 249.5 41.7096 249.5 41.7096C249.368 43.4688 246.368 46.2096 247 46.2096C246.164 47.7635 248.694 44.6287 247.298 45.7096C244.313 48.0105 234.161 45.7035 232.5 45.7096L230 47.7096L228.5 49.2096L222.5 54.2096C222.5 54.2096 219.716 57.1282 218.256 60.0434C217.467 61.6205 221.191 77.4973 218.986 91.8678C217.116 104.06 220.223 110.872 220 112.21C219.622 114.472 218.213 112.74 222.526 109.969C222.59 110.04 222.636 110.088 222.636 110.088C222.636 110.088 222.134 111.545 227 110.088C229.757 109.262 230.68 110.701 233.5 110.817C233.497 111.661 234.512 110.36 234.557 110.817C235.044 115.675 261.594 114.667 265 113.21C268.406 111.752 265.699 101.585 265.699 101.585Z" fill="#2F2E41"/>
<path d="M255.065 149.514C255.065 149.514 257.529 140.556 262.629 141.397C267.73 142.237 271.077 143.02 271.077 143.02C271.077 143.02 257.981 143.134 255.065 149.514Z" fill="#BE7E1F"/>
<path d="M264.063 216.371C264.063 216.371 267.331 212.279 269.785 213.849C272.24 215.419 273.799 216.569 273.799 216.569C273.799 216.569 266.992 213.715 264.063 216.371Z" fill="#2F2E41"/>
<path d="M239.132 201.435L223.744 202.765C223.744 202.765 227.05 218.482 225.997 224.044C224.943 229.607 226.156 231.39 226.156 231.39L239.697 230.338L239.132 201.435Z" fill="#6C63FF"/>
<path d="M228.063 217.371C228.063 217.371 231.331 213.279 233.785 214.849C236.24 216.419 237.799 217.569 237.799 217.569C237.799 217.569 230.992 214.715 228.063 217.371Z" fill="#2F2E41"/>
<path d="M239.132 201.435L223.744 202.765C223.744 202.765 227.05 218.482 225.997 224.044C224.943 229.607 226.156 231.39 226.156 231.39L239.697 230.338L239.132 201.435Z" fill="#BE7E1F"/>
<path d="M228.063 217.371C228.063 217.371 231.331 213.279 233.785 214.849C236.24 216.419 237.799 217.569 237.799 217.569C237.799 217.569 230.992 214.715 228.063 217.371Z" fill="#2F2E41"/>
<path opacity="0.2" d="M270.245 76.2096L261 111.192L268.786 94.6726L270.245 76.2096Z" fill="black"/>
<path d="M252.377 17.8071C252.377 17.8071 249.949 6.75338 240.559 7.10633C231.168 7.45929 225.384 9.82252 224.235 13.2092C223.085 16.5959 222.519 21.9318 222.519 21.9318C222.519 21.9318 225.054 15.0082 230.893 17.916C236.732 20.8237 246.641 21.7987 246.641 21.7987L245.131 36.0278C245.131 36.0278 247.42 33.9041 249.012 35.8737C250.603 37.8432 257.877 22.258 252.377 17.8071Z" fill="#2F2E41"/>
<path d="M281.068 238.346C280.849 236.355 278.034 227.079 277.666 228.534C277.298 229.988 269.255 231.347 266.756 228.066C266.756 228.066 263.359 224.172 261.453 227.346C259.547 230.519 255.866 235.904 255.866 235.904C255.866 235.904 241.994 240.394 243.463 244.026C243.76 244.761 244.801 245.195 246.273 245.421C246.226 245.505 246.195 245.598 246.182 245.693L246.135 246.034C246.107 246.244 246.163 246.457 246.291 246.626C246.42 246.795 246.61 246.906 246.821 246.934L247.162 246.981C247.373 247.009 247.586 246.953 247.755 246.825C247.924 246.696 248.035 246.506 248.064 246.296L248.11 245.955C248.126 245.832 248.113 245.707 248.072 245.59C248.471 245.609 248.886 245.619 249.314 245.621C249.184 245.744 249.099 245.908 249.075 246.086L249.028 246.427C248.999 246.637 249.055 246.85 249.184 247.019C249.312 247.188 249.503 247.299 249.713 247.327L250.055 247.374C250.265 247.402 250.479 247.346 250.648 247.218C250.817 247.089 250.928 246.899 250.957 246.689L251.003 246.348C251.022 246.207 251.003 246.063 250.947 245.932C250.891 245.801 250.801 245.687 250.687 245.602C251.822 245.568 253.012 245.49 254.199 245.386C254.107 245.498 254.048 245.634 254.027 245.778L253.981 246.119C253.952 246.329 254.008 246.542 254.137 246.711C254.265 246.88 254.456 246.99 254.666 247.019L255.008 247.065C255.218 247.094 255.431 247.038 255.6 246.91C255.769 246.781 255.881 246.591 255.909 246.381L255.956 246.04C255.977 245.887 255.952 245.731 255.886 245.591C255.82 245.451 255.715 245.334 255.583 245.253C256.475 245.16 257.352 245.056 258.187 244.948C258.095 245.06 258.036 245.195 258.016 245.339L257.969 245.68C257.941 245.89 257.997 246.103 258.125 246.272C258.254 246.441 258.444 246.551 258.655 246.58L258.996 246.626C259.207 246.655 259.42 246.599 259.589 246.471C259.758 246.342 259.869 246.152 259.898 245.942L259.944 245.601C259.967 245.432 259.935 245.261 259.853 245.112C259.771 244.963 259.643 244.844 259.489 244.772C262.429 244.36 264.589 243.953 264.589 243.953C264.589 243.953 267.106 243.408 270.172 242.625L270.132 242.919C270.103 243.129 270.159 243.342 270.288 243.51C270.416 243.679 270.607 243.79 270.817 243.819L271.159 243.865C271.369 243.894 271.582 243.838 271.751 243.709C271.92 243.581 272.032 243.391 272.06 243.18L272.107 242.839C272.123 242.719 272.111 242.597 272.073 242.482C272.034 242.367 271.97 242.262 271.885 242.176C272.501 242.011 273.124 241.839 273.741 241.662L273.704 241.933C273.675 242.143 273.731 242.356 273.86 242.524C273.988 242.693 274.179 242.804 274.389 242.833L274.731 242.879C274.941 242.908 275.154 242.852 275.323 242.723C275.492 242.595 275.604 242.405 275.632 242.195L275.679 241.853C275.696 241.726 275.682 241.596 275.639 241.475C275.595 241.354 275.522 241.246 275.428 241.159C276.097 240.951 276.743 240.741 277.34 240.53C277.334 240.555 277.326 240.579 277.322 240.605L277.276 240.947C277.247 241.157 277.303 241.37 277.432 241.538C277.56 241.707 277.751 241.818 277.961 241.847L278.303 241.893C278.513 241.922 278.726 241.866 278.895 241.737C279.064 241.609 279.176 241.419 279.204 241.209L279.251 240.867C279.276 240.685 279.237 240.499 279.14 240.342C279.044 240.185 278.896 240.066 278.722 240.005C280.177 239.406 281.121 238.828 281.068 238.346Z" fill="#2F2E41"/>
<path d="M241.469 239.324C241.591 237.325 240.393 227.706 239.783 229.077C239.173 230.448 231.016 230.422 229.111 226.763C229.111 226.763 226.424 222.349 224.007 225.153C221.589 227.957 217.048 232.638 217.048 232.638C217.048 232.638 202.615 234.708 203.445 238.537C203.613 239.311 204.566 239.916 205.978 240.388C205.918 240.463 205.872 240.549 205.842 240.641L205.738 240.969C205.674 241.171 205.693 241.39 205.791 241.579C205.889 241.767 206.058 241.908 206.261 241.972L206.59 242.076C206.792 242.14 207.012 242.121 207.2 242.023C207.389 241.925 207.53 241.757 207.594 241.555L207.698 241.226C207.735 241.108 207.743 240.982 207.722 240.86C208.112 240.947 208.52 241.027 208.941 241.102C208.792 241.201 208.681 241.348 208.626 241.519L208.522 241.847C208.458 242.05 208.478 242.269 208.576 242.457C208.674 242.645 208.842 242.787 209.045 242.851L209.374 242.954C209.576 243.018 209.796 242.999 209.984 242.902C210.173 242.804 210.314 242.635 210.378 242.433L210.482 242.105C210.525 241.969 210.53 241.824 210.497 241.685C210.465 241.547 210.396 241.419 210.297 241.316C211.421 241.475 212.608 241.601 213.795 241.699C213.685 241.794 213.604 241.918 213.559 242.056L213.455 242.385C213.391 242.587 213.411 242.806 213.509 242.995C213.607 243.183 213.775 243.324 213.978 243.388L214.307 243.492C214.509 243.556 214.729 243.537 214.917 243.439C215.106 243.341 215.248 243.173 215.311 242.97L215.415 242.642C215.462 242.495 215.464 242.337 215.423 242.188C215.381 242.039 215.297 241.905 215.181 241.803C216.077 241.863 216.958 241.909 217.8 241.945C217.69 242.04 217.609 242.163 217.564 242.301L217.461 242.629C217.397 242.832 217.416 243.051 217.514 243.239C217.612 243.427 217.781 243.569 217.983 243.633L218.312 243.737C218.514 243.8 218.734 243.781 218.922 243.684C219.111 243.586 219.253 243.417 219.317 243.215L219.42 242.887C219.471 242.724 219.469 242.55 219.413 242.389C219.358 242.229 219.253 242.09 219.112 241.993C222.08 242.086 224.277 242.052 224.277 242.052C224.277 242.052 226.851 241.942 230.005 241.691L229.915 241.973C229.851 242.176 229.87 242.395 229.968 242.583C230.066 242.771 230.235 242.913 230.438 242.977L230.767 243.081C230.969 243.144 231.189 243.125 231.377 243.028C231.566 242.93 231.707 242.761 231.771 242.559L231.875 242.231C231.911 242.115 231.921 241.993 231.902 241.873C231.884 241.753 231.838 241.639 231.769 241.539C232.405 241.481 233.047 241.417 233.685 241.348L233.603 241.608C233.539 241.811 233.558 242.03 233.656 242.218C233.754 242.406 233.923 242.548 234.125 242.612L234.454 242.716C234.657 242.779 234.876 242.76 235.065 242.663C235.253 242.565 235.395 242.396 235.459 242.194L235.563 241.866C235.601 241.743 235.61 241.613 235.587 241.486C235.565 241.36 235.512 241.24 235.433 241.138C236.128 241.048 236.8 240.95 237.425 240.843C237.415 240.867 237.402 240.89 237.394 240.915L237.29 241.243C237.226 241.446 237.246 241.665 237.344 241.853C237.442 242.041 237.61 242.183 237.813 242.247L238.142 242.35C238.344 242.414 238.564 242.395 238.752 242.298C238.941 242.2 239.082 242.031 239.146 241.829L239.25 241.501C239.306 241.325 239.299 241.135 239.23 240.964C239.162 240.793 239.037 240.65 238.875 240.561C240.411 240.218 241.44 239.809 241.469 239.324Z" fill="#2F2E41"/>
<path d="M276.146 127.296C276.146 127.296 262.19 141.111 272.013 143.076C281.836 145.042 284.976 128.823 284.976 128.823L276.146 127.296Z" fill="#FFB8B8"/>
<path d="M255.672 50.6228C255.672 50.6228 240.868 57.3386 252.275 69.2682C263.705 81.2212 272.88 92.03 272.88 92.03L275.518 116.32L273.926 129.72L286.364 128.543L288.839 89.1327C288.839 89.1327 272.506 41.256 255.672 50.6228Z" fill="#2F2E41"/>
</svg>
