<svg width="37" height="36" viewBox="0 0 37 36" fill="none" xmlns="http://www.w3.org/2000/svg">
<path d="M19.0375 0.499998C17.2996 0.552498 15.9559 1.97 16.0096 3.65C16.0275 4.07 16.1171 4.4725 16.2963 4.875L16.8159 5.995C16.8875 6.2225 16.7621 6.4675 16.5113 6.5375C16.35 6.625 16.1709 6.5375 16.0455 6.3975L15.293 5.435C14.7017 4.7 13.8059 4.245 12.8563 4.2275C11.1184 4.1925 9.68504 5.54 9.64921 7.22C9.63129 7.955 9.88212 8.655 10.348 9.25L11.1005 10.125H11.1184C11.2617 10.3525 11.208 10.6325 11.0109 10.7725C10.8496 10.895 10.6346 10.895 10.4913 10.7725L9.54171 10.0375C8.93254 9.5825 8.19796 9.3375 7.46337 9.355C5.74337 9.39 4.36379 10.79 4.39962 12.4875C4.41754 13.415 4.88337 14.29 5.63587 14.8675L6.65712 15.6375C6.85421 15.8125 6.85421 16.0925 6.63921 16.25C6.51379 16.3725 6.33462 16.4075 6.17337 16.3375H6.15546L5.06254 15.8475C4.65046 15.69 4.23837 15.585 3.80837 15.5675C2.08837 15.515 0.637124 16.845 0.583374 18.5425C0.583374 19.8025 1.30004 20.9575 2.48254 21.4475L22.8896 30.32L31.1134 22.2875L22.0296 2.355C21.528 1.1825 20.2917 0.447498 19.0375 0.499998ZM20.5246 7.675C21.2771 7.6575 21.958 8.0775 22.2446 8.7425L27.7092 20.7125L20.6321 13.8175L18.9659 10.125C18.4284 9.0225 19.2525 7.71 20.5246 7.675ZM14.648 12.4875C15.1317 12.4875 15.5796 12.6625 15.92 13.0125L24.538 21.43C25.2546 22.095 25.2725 23.1975 24.5917 23.8975C23.875 24.5975 22.7642 24.615 22.0117 23.8975L13.3938 15.48C12.6771 14.815 12.6592 13.695 13.358 13.0125C13.6984 12.6625 14.1642 12.4875 14.648 12.4875ZM9.77462 18.2975C10.0075 18.2975 10.2584 18.3675 10.4375 18.455L14.2538 20.1L21.313 26.995L9.02212 21.6575C7.19462 20.8875 7.80379 18.245 9.77462 18.2975ZM33.335 25.07L25.7384 32.49L27.2613 33.9775C28.623 35.29 30.5938 35.7975 32.4392 35.325C34.2846 34.835 35.7359 33.4175 36.2375 31.615C36.7213 29.8125 36.2017 27.8875 34.858 26.5575L33.335 25.07Z" fill="#6C63FF"/>
</svg>
